<svg width="450" height="381" viewBox="0 0 450 381" fill="none" xmlns="http://www.w3.org/2000/svg">
<g filter="url(#filter0_d)">
<g filter="url(#filter1_d)">
<rect x="15" y="13" width="420" height="351" rx="20" fill="white"/>
</g>
<g filter="url(#filter2_d)">
<rect x="51" y="89" width="347" height="166.547" fill="#302E28"/>
<rect x="51" y="50.3333" width="347" height="29.3333" rx="5" fill="#FFE5A0" fill-opacity="0.5"/>
<path d="M71.7691 65.048C72.3237 65.0373 72.7824 64.8827 73.1451 64.584C73.5077 64.2747 73.6891 63.864 73.6891 63.352C73.6891 62.8827 73.5131 62.488 73.1611 62.168C72.8197 61.848 72.3557 61.688 71.7691 61.688C71.1824 61.688 70.7131 61.848 70.3611 62.168C70.0197 62.488 69.8491 62.8827 69.8491 63.352C69.8491 63.864 70.0304 64.2747 70.3931 64.584C70.7557 64.8827 71.2144 65.0373 71.7691 65.048ZM71.7691 69.88C72.4731 69.88 73.0117 69.7147 73.3851 69.384C73.7584 69.0427 73.9451 68.6267 73.9451 68.136C73.9451 67.6347 73.7531 67.2133 73.3691 66.872C72.9957 66.5307 72.4624 66.36 71.7691 66.36C71.0757 66.36 70.5371 66.5307 70.1531 66.872C69.7797 67.2133 69.5931 67.6347 69.5931 68.136C69.5931 68.6267 69.7797 69.0427 70.1531 69.384C70.5264 69.7147 71.0651 69.88 71.7691 69.88ZM71.7691 71.24C71.1717 71.24 70.6384 71.16 70.1691 71C69.7104 70.8507 69.3211 70.6427 69.0011 70.376C68.6811 70.1093 68.4357 69.7947 68.2651 69.432C68.0944 69.0693 68.0091 68.68 68.0091 68.264C68.0091 67.624 68.1957 67.0853 68.5691 66.648C68.9531 66.2 69.4224 65.8853 69.9771 65.704C69.7424 65.6187 69.5184 65.496 69.3051 65.336C69.1024 65.176 68.9264 64.9947 68.7771 64.792C68.6277 64.5787 68.5051 64.344 68.4091 64.088C68.3237 63.832 68.2811 63.56 68.2811 63.272C68.2811 62.8453 68.3664 62.456 68.5371 62.104C68.7184 61.752 68.9637 61.448 69.2731 61.192C69.5931 60.936 69.9611 60.7387 70.3771 60.6C70.8037 60.4613 71.2677 60.392 71.7691 60.392C72.2597 60.392 72.7184 60.4613 73.1451 60.6C73.5717 60.7387 73.9397 60.936 74.2491 61.192C74.5691 61.448 74.8144 61.752 74.9851 62.104C75.1664 62.456 75.2571 62.8453 75.2571 63.272C75.2571 63.8373 75.0917 64.3387 74.7611 64.776C74.4411 65.2133 74.0411 65.5227 73.5611 65.704C74.1157 65.8853 74.5797 66.2 74.9531 66.648C75.3371 67.0853 75.5291 67.624 75.5291 68.264C75.5291 68.68 75.4437 69.0693 75.2731 69.432C75.1024 69.7947 74.8571 70.1093 74.5371 70.376C74.2171 70.6427 73.8224 70.8507 73.3531 71C72.8944 71.16 72.3664 71.24 71.7691 71.24ZM78.5161 65.816C78.5161 67.416 78.8201 68.536 79.4281 69.176C79.6307 69.3893 79.8601 69.5547 80.1161 69.672C80.3827 69.7893 80.7027 69.848 81.0761 69.848C81.4494 69.848 81.7641 69.7893 82.0201 69.672C82.2867 69.5547 82.5214 69.3893 82.7241 69.176C83.3321 68.536 83.6361 67.416 83.6361 65.816C83.6361 64.216 83.3321 63.096 82.7241 62.456C82.5214 62.2427 82.2867 62.0773 82.0201 61.96C81.7641 61.8427 81.4494 61.784 81.0761 61.784C80.7027 61.784 80.3827 61.8427 80.1161 61.96C79.8601 62.0773 79.6307 62.2427 79.4281 62.456C78.8201 63.096 78.5161 64.216 78.5161 65.816ZM76.9641 65.816C76.9641 65.1013 77.0334 64.424 77.1721 63.784C77.3107 63.144 77.5507 62.568 77.8921 62.056C78.2334 61.544 78.6654 61.1387 79.1881 60.84C79.7107 60.5413 80.3401 60.392 81.0761 60.392C81.8121 60.392 82.4414 60.5413 82.9641 60.84C83.4867 61.1387 83.9187 61.544 84.2601 62.056C84.6014 62.568 84.8414 63.144 84.9801 63.784C85.1187 64.424 85.1881 65.1013 85.1881 65.816C85.1881 66.5307 85.1187 67.208 84.9801 67.848C84.8414 68.488 84.6014 69.064 84.2601 69.576C83.9187 70.088 83.4867 70.4933 82.9641 70.792C82.4414 71.0907 81.8121 71.24 81.0761 71.24C80.3401 71.24 79.7107 71.0907 79.1881 70.792C78.6654 70.4933 78.2334 70.088 77.8921 69.576C77.5507 69.064 77.3107 68.488 77.1721 67.848C77.0334 67.208 76.9641 66.5307 76.9641 65.816ZM87.8877 63.032C87.8877 63.4053 88.005 63.7093 88.2397 63.944C88.485 64.1787 88.7784 64.296 89.1197 64.296C89.4717 64.296 89.765 64.1787 89.9997 63.944C90.2344 63.7093 90.3517 63.4053 90.3517 63.032C90.3517 62.6693 90.2344 62.3707 89.9997 62.136C89.765 61.9013 89.4717 61.784 89.1197 61.784C88.7784 61.784 88.485 61.9013 88.2397 62.136C88.005 62.3707 87.8877 62.6693 87.8877 63.032ZM86.5597 63.032C86.5597 62.68 86.629 62.3547 86.7677 62.056C86.9064 61.7467 87.093 61.48 87.3277 61.256C87.5624 61.0213 87.8344 60.84 88.1437 60.712C88.453 60.584 88.7784 60.52 89.1197 60.52C89.461 60.52 89.7864 60.584 90.0957 60.712C90.4157 60.84 90.693 61.0213 90.9277 61.256C91.1624 61.48 91.349 61.7467 91.4877 62.056C91.6264 62.3547 91.6957 62.68 91.6957 63.032C91.6957 63.384 91.6264 63.7147 91.4877 64.024C91.349 64.3333 91.1624 64.6053 90.9277 64.84C90.693 65.064 90.4157 65.24 90.0957 65.368C89.7864 65.496 89.461 65.56 89.1197 65.56C88.7784 65.56 88.453 65.496 88.1437 65.368C87.8344 65.24 87.5624 65.064 87.3277 64.84C87.093 64.6053 86.9064 64.3333 86.7677 64.024C86.629 63.7147 86.5597 63.384 86.5597 63.032ZM94.2237 68.6C94.2237 68.9733 94.341 69.2773 94.5757 69.512C94.821 69.7467 95.1144 69.864 95.4557 69.864C95.8077 69.864 96.101 69.7467 96.3357 69.512C96.5704 69.2773 96.6877 68.9733 96.6877 68.6C96.6877 68.2373 96.5704 67.9387 96.3357 67.704C96.101 67.4693 95.8077 67.352 95.4557 67.352C95.1144 67.352 94.821 67.4693 94.5757 67.704C94.341 67.9387 94.2237 68.2373 94.2237 68.6ZM92.8957 68.6C92.8957 68.248 92.965 67.9227 93.1037 67.624C93.2424 67.3147 93.429 67.048 93.6637 66.824C93.8984 66.5893 94.1704 66.408 94.4797 66.28C94.789 66.152 95.1144 66.088 95.4557 66.088C95.797 66.088 96.1224 66.152 96.4317 66.28C96.7517 66.408 97.029 66.5893 97.2637 66.824C97.4984 67.048 97.685 67.3147 97.8237 67.624C97.9624 67.9227 98.0317 68.248 98.0317 68.6C98.0317 68.952 97.9624 69.2827 97.8237 69.592C97.685 69.9013 97.4984 70.1733 97.2637 70.408C97.029 70.632 96.7517 70.808 96.4317 70.936C96.1224 71.064 95.797 71.128 95.4557 71.128C95.1144 71.128 94.789 71.064 94.4797 70.936C94.1704 70.808 93.8984 70.632 93.6637 70.408C93.429 70.1733 93.2424 69.9013 93.1037 69.592C92.965 69.2827 92.8957 68.952 92.8957 68.6ZM87.8397 71L95.2957 60.632H96.7357L89.3117 71H87.8397ZM107.334 69.896C107.654 69.896 107.958 69.8373 108.246 69.72C108.534 69.6027 108.79 69.4267 109.014 69.192C109.238 68.9573 109.414 68.6693 109.542 68.328C109.67 67.9867 109.734 67.592 109.734 67.144C109.734 66.696 109.67 66.3067 109.542 65.976C109.414 65.6347 109.238 65.3467 109.014 65.112C108.79 64.8773 108.534 64.7013 108.246 64.584C107.958 64.4667 107.654 64.408 107.334 64.408C107.014 64.408 106.71 64.4667 106.422 64.584C106.134 64.7013 105.878 64.8773 105.654 65.112C105.43 65.3467 105.254 65.6347 105.126 65.976C104.998 66.3067 104.934 66.696 104.934 67.144C104.934 67.592 104.998 67.9867 105.126 68.328C105.254 68.6693 105.43 68.9573 105.654 69.192C105.878 69.4267 106.134 69.6027 106.422 69.72C106.71 69.8373 107.014 69.896 107.334 69.896ZM107.334 63.064C107.91 63.064 108.438 63.1707 108.918 63.384C109.398 63.5867 109.814 63.8693 110.166 64.232C110.518 64.5947 110.79 65.0267 110.982 65.528C111.174 66.0187 111.27 66.5573 111.27 67.144C111.27 67.7307 111.174 68.2747 110.982 68.776C110.79 69.2773 110.518 69.7093 110.166 70.072C109.814 70.4347 109.398 70.7227 108.918 70.936C108.438 71.1387 107.91 71.24 107.334 71.24C106.758 71.24 106.23 71.1387 105.75 70.936C105.27 70.7227 104.854 70.4347 104.502 70.072C104.15 69.7093 103.878 69.2773 103.686 68.776C103.494 68.2747 103.398 67.7307 103.398 67.144C103.398 66.5573 103.494 66.0187 103.686 65.528C103.878 65.0267 104.15 64.5947 104.502 64.232C104.854 63.8693 105.27 63.5867 105.75 63.384C106.23 63.1707 106.758 63.064 107.334 63.064ZM115.21 64.664V71H113.658V64.664H112.234V63.304H113.658V62.008C113.658 61.5813 113.722 61.2027 113.85 60.872C113.989 60.5413 114.17 60.264 114.394 60.04C114.629 59.816 114.895 59.6507 115.194 59.544C115.503 59.4267 115.834 59.368 116.186 59.368C116.442 59.368 116.645 59.3893 116.794 59.432C116.954 59.4747 117.05 59.5067 117.082 59.528V60.872C117.039 60.8507 116.965 60.8293 116.858 60.808C116.762 60.7867 116.618 60.776 116.426 60.776C116.298 60.776 116.159 60.7973 116.01 60.84C115.871 60.872 115.738 60.936 115.61 61.032C115.493 61.128 115.397 61.2613 115.322 61.432C115.247 61.6027 115.21 61.8213 115.21 62.088V63.304H117.066V64.664H115.21ZM124.694 63.304H126.358V64.664H124.694V68.664C124.694 69.016 124.774 69.2827 124.934 69.464C125.094 69.6347 125.372 69.72 125.766 69.72C125.862 69.72 125.969 69.7147 126.086 69.704C126.204 69.6933 126.294 69.6773 126.358 69.656V70.936C126.294 70.9573 126.172 70.984 125.99 71.016C125.809 71.0587 125.59 71.08 125.334 71.08C124.673 71.08 124.15 70.8933 123.766 70.52C123.382 70.136 123.19 69.592 123.19 68.888V64.664H121.718V63.304H122.134C122.55 63.304 122.849 63.192 123.03 62.968C123.222 62.744 123.318 62.4613 123.318 62.12V60.872H124.694V63.304ZM129.87 71H128.366V59.416H129.87V64.2C130.147 63.7947 130.494 63.5067 130.91 63.336C131.326 63.1653 131.758 63.08 132.206 63.08C132.665 63.08 133.065 63.16 133.406 63.32C133.758 63.4693 134.046 63.6827 134.27 63.96C134.505 64.2267 134.675 64.5467 134.782 64.92C134.899 65.2933 134.958 65.6933 134.958 66.12V71H133.454V66.376C133.454 66.1093 133.422 65.8587 133.358 65.624C133.305 65.3893 133.203 65.1867 133.054 65.016C132.915 64.8347 132.729 64.696 132.494 64.6C132.27 64.4933 131.993 64.44 131.662 64.44C131.374 64.44 131.118 64.4933 130.894 64.6C130.681 64.7067 130.499 64.8507 130.35 65.032C130.201 65.2133 130.083 65.4267 129.998 65.672C129.923 65.9173 129.881 66.184 129.87 66.472V71ZM142.534 66.36C142.513 65.8053 142.326 65.3413 141.974 64.968C141.622 64.584 141.105 64.392 140.422 64.392C140.102 64.392 139.814 64.4507 139.558 64.568C139.313 64.6747 139.1 64.824 138.918 65.016C138.748 65.1973 138.609 65.4053 138.502 65.64C138.396 65.8747 138.337 66.1147 138.326 66.36H142.534ZM144.054 68.808C143.948 69.1493 143.788 69.4693 143.574 69.768C143.372 70.056 143.121 70.312 142.822 70.536C142.534 70.7493 142.204 70.92 141.83 71.048C141.457 71.176 141.046 71.24 140.598 71.24C140.086 71.24 139.596 71.1493 139.126 70.968C138.657 70.7867 138.241 70.52 137.878 70.168C137.526 69.816 137.244 69.384 137.03 68.872C136.828 68.36 136.726 67.7787 136.726 67.128C136.726 66.52 136.828 65.9707 137.03 65.48C137.233 64.9787 137.5 64.552 137.83 64.2C138.172 63.8373 138.566 63.56 139.014 63.368C139.462 63.1653 139.926 63.064 140.406 63.064C140.993 63.064 141.516 63.1653 141.974 63.368C142.444 63.56 142.833 63.832 143.142 64.184C143.452 64.536 143.686 64.9627 143.846 65.464C144.017 65.9547 144.102 66.4987 144.102 67.096C144.102 67.192 144.097 67.2827 144.086 67.368C144.086 67.4533 144.081 67.5227 144.07 67.576H138.278C138.289 67.9173 138.353 68.232 138.47 68.52C138.588 68.808 138.748 69.0587 138.95 69.272C139.164 69.4747 139.409 69.6347 139.686 69.752C139.974 69.8587 140.278 69.912 140.598 69.912C141.228 69.912 141.708 69.7627 142.038 69.464C142.369 69.1653 142.609 68.7973 142.758 68.36L144.054 68.808ZM153.318 69.896C153.638 69.896 153.942 69.8373 154.23 69.72C154.518 69.6027 154.774 69.4267 154.998 69.192C155.222 68.9573 155.398 68.6693 155.526 68.328C155.654 67.9867 155.718 67.592 155.718 67.144C155.718 66.696 155.654 66.3067 155.526 65.976C155.398 65.6347 155.222 65.3467 154.998 65.112C154.774 64.8773 154.518 64.7013 154.23 64.584C153.942 64.4667 153.638 64.408 153.318 64.408C152.998 64.408 152.694 64.4667 152.406 64.584C152.118 64.7013 151.862 64.8773 151.638 65.112C151.414 65.3467 151.238 65.6347 151.11 65.976C150.982 66.3067 150.918 66.696 150.918 67.144C150.918 67.592 150.982 67.9867 151.11 68.328C151.238 68.6693 151.414 68.9573 151.638 69.192C151.862 69.4267 152.118 69.6027 152.406 69.72C152.694 69.8373 152.998 69.896 153.318 69.896ZM153.318 63.064C153.894 63.064 154.422 63.1707 154.902 63.384C155.382 63.5867 155.798 63.8693 156.15 64.232C156.502 64.5947 156.774 65.0267 156.966 65.528C157.158 66.0187 157.254 66.5573 157.254 67.144C157.254 67.7307 157.158 68.2747 156.966 68.776C156.774 69.2773 156.502 69.7093 156.15 70.072C155.798 70.4347 155.382 70.7227 154.902 70.936C154.422 71.1387 153.894 71.24 153.318 71.24C152.742 71.24 152.214 71.1387 151.734 70.936C151.254 70.7227 150.838 70.4347 150.486 70.072C150.134 69.7093 149.862 69.2773 149.67 68.776C149.478 68.2747 149.382 67.7307 149.382 67.144C149.382 66.5573 149.478 66.0187 149.67 65.528C149.862 65.0267 150.134 64.5947 150.486 64.232C150.838 63.8693 151.254 63.5867 151.734 63.384C152.214 63.1707 152.742 63.064 153.318 63.064ZM163.45 64.824C163.226 64.792 163.008 64.776 162.794 64.776C162.165 64.776 161.653 64.9627 161.258 65.336C160.874 65.6987 160.682 66.3013 160.682 67.144V71H159.178V63.304H160.65V64.648C160.789 64.3493 160.949 64.1093 161.13 63.928C161.322 63.736 161.52 63.5867 161.722 63.48C161.925 63.3627 162.133 63.2827 162.346 63.24C162.56 63.1973 162.762 63.176 162.954 63.176C163.061 63.176 163.157 63.1813 163.242 63.192C163.338 63.2027 163.408 63.2133 163.45 63.224V64.824ZM165.053 71V63.304H166.541V71H165.053ZM164.717 60.392C164.717 60.0827 164.819 59.8267 165.021 59.624C165.235 59.4107 165.491 59.304 165.789 59.304C166.099 59.304 166.355 59.4107 166.557 59.624C166.771 59.8267 166.877 60.0827 166.877 60.392C166.877 60.6907 166.771 60.9467 166.557 61.16C166.355 61.3627 166.099 61.464 165.789 61.464C165.491 61.464 165.235 61.3627 165.021 61.16C164.819 60.9467 164.717 60.6907 164.717 60.392ZM169.996 71.08C170.05 71.624 170.263 72.072 170.636 72.424C171.02 72.7867 171.506 72.968 172.092 72.968C172.903 72.968 173.495 72.76 173.868 72.344C174.252 71.928 174.444 71.304 174.444 70.472V69.368C174.263 69.72 173.97 70.0187 173.564 70.264C173.159 70.5093 172.668 70.632 172.092 70.632C171.58 70.632 171.106 70.5413 170.668 70.36C170.242 70.168 169.868 69.912 169.548 69.592C169.239 69.2613 168.994 68.8667 168.812 68.408C168.642 67.9493 168.556 67.448 168.556 66.904C168.556 66.3813 168.642 65.896 168.812 65.448C168.983 64.9893 169.223 64.5947 169.532 64.264C169.842 63.9227 170.21 63.656 170.636 63.464C171.074 63.2613 171.559 63.16 172.092 63.16C172.69 63.16 173.186 63.2667 173.58 63.48C173.975 63.6933 174.268 63.992 174.46 64.376V63.304H175.948V70.424C175.948 70.9147 175.884 71.3893 175.756 71.848C175.628 72.3173 175.41 72.728 175.1 73.08C174.802 73.4427 174.407 73.7307 173.916 73.944C173.426 74.168 172.818 74.28 172.092 74.28C171.612 74.28 171.164 74.2053 170.748 74.056C170.343 73.9173 169.98 73.72 169.66 73.464C169.351 73.208 169.095 72.904 168.892 72.552C168.7 72.2107 168.583 71.832 168.54 71.416L169.996 71.08ZM172.316 69.368C172.967 69.368 173.495 69.144 173.9 68.696C174.306 68.248 174.508 67.6507 174.508 66.904C174.508 66.1573 174.306 65.56 173.9 65.112C173.495 64.664 172.967 64.44 172.316 64.44C171.644 64.44 171.106 64.664 170.7 65.112C170.295 65.56 170.092 66.1573 170.092 66.904C170.092 67.6613 170.29 68.264 170.684 68.712C171.09 69.1493 171.634 69.368 172.316 69.368ZM178.35 71V63.304H179.838V71H178.35ZM178.014 60.392C178.014 60.0827 178.116 59.8267 178.318 59.624C178.532 59.4107 178.788 59.304 179.086 59.304C179.396 59.304 179.652 59.4107 179.854 59.624C180.068 59.8267 180.174 60.0827 180.174 60.392C180.174 60.6907 180.068 60.9467 179.854 61.16C179.652 61.3627 179.396 61.464 179.086 61.464C178.788 61.464 178.532 61.3627 178.318 61.16C178.116 60.9467 178.014 60.6907 178.014 60.392ZM183.901 71H182.397V63.304H183.869V64.408C184.147 63.928 184.499 63.5867 184.925 63.384C185.352 63.1813 185.789 63.08 186.237 63.08C186.696 63.08 187.096 63.16 187.437 63.32C187.789 63.4693 188.077 63.6827 188.301 63.96C188.536 64.2267 188.707 64.5467 188.813 64.92C188.931 65.2933 188.989 65.6933 188.989 66.12V71H187.485V66.376C187.485 66.1093 187.453 65.8587 187.389 65.624C187.336 65.3893 187.235 65.1867 187.085 65.016C186.947 64.8347 186.76 64.696 186.525 64.6C186.301 64.4933 186.024 64.44 185.693 64.44C185.395 64.44 185.133 64.4987 184.909 64.616C184.685 64.7227 184.499 64.872 184.349 65.064C184.2 65.256 184.088 65.48 184.013 65.736C183.939 65.992 183.901 66.264 183.901 66.552V71ZM190.902 68.936C190.902 68.5947 190.96 68.2907 191.078 68.024C191.195 67.7467 191.355 67.512 191.558 67.32C191.771 67.128 192.022 66.9733 192.31 66.856C192.598 66.7387 192.907 66.6533 193.238 66.6L195.318 66.296C195.552 66.264 195.707 66.1947 195.782 66.088C195.867 65.9813 195.91 65.8587 195.91 65.72C195.91 65.3467 195.776 65.0267 195.51 64.76C195.254 64.4827 194.832 64.344 194.246 64.344C193.712 64.344 193.302 64.4933 193.014 64.792C192.726 65.08 192.555 65.448 192.502 65.896L191.062 65.56C191.104 65.1973 191.211 64.8613 191.382 64.552C191.563 64.2427 191.792 63.9813 192.07 63.768C192.347 63.544 192.667 63.3733 193.03 63.256C193.403 63.128 193.798 63.064 194.214 63.064C194.79 63.064 195.28 63.144 195.686 63.304C196.091 63.4533 196.422 63.656 196.678 63.912C196.934 64.168 197.12 64.4667 197.238 64.808C197.355 65.1493 197.414 65.5067 197.414 65.88V69.736C197.414 70.0773 197.424 70.3493 197.446 70.552C197.467 70.7547 197.488 70.904 197.51 71H196.038C196.016 70.904 195.995 70.776 195.974 70.616C195.963 70.456 195.958 70.2373 195.958 69.96C195.872 70.0987 195.76 70.2427 195.622 70.392C195.483 70.5413 195.312 70.68 195.11 70.808C194.907 70.936 194.667 71.0373 194.39 71.112C194.123 71.1973 193.819 71.24 193.478 71.24C193.083 71.24 192.726 71.176 192.406 71.048C192.096 70.92 191.83 70.7547 191.606 70.552C191.382 70.3387 191.206 70.0933 191.078 69.816C190.96 69.5387 190.902 69.2453 190.902 68.936ZM193.686 69.976C193.995 69.976 194.283 69.9387 194.55 69.864C194.827 69.7787 195.062 69.6507 195.254 69.48C195.456 69.2987 195.616 69.064 195.734 68.776C195.851 68.4773 195.91 68.12 195.91 67.704V67.352L193.558 67.704C193.238 67.7573 192.971 67.88 192.758 68.072C192.544 68.2533 192.438 68.5147 192.438 68.856C192.438 69.144 192.55 69.4053 192.774 69.64C192.998 69.864 193.302 69.976 193.686 69.976ZM199.757 71V59.416H201.261V71H199.757ZM211.339 71H209.819L206.699 63.304H208.395L210.587 69.24L212.795 63.304H214.411L211.339 71ZM215.85 71V63.304H217.338V71H215.85ZM215.514 60.392C215.514 60.0827 215.616 59.8267 215.818 59.624C216.032 59.4107 216.288 59.304 216.586 59.304C216.896 59.304 217.152 59.4107 217.354 59.624C217.568 59.8267 217.674 60.0827 217.674 60.392C217.674 60.6907 217.568 60.9467 217.354 61.16C217.152 61.3627 216.896 61.464 216.586 61.464C216.288 61.464 216.032 61.3627 215.818 61.16C215.616 60.9467 215.514 60.6907 215.514 60.392ZM220.793 67.128C220.793 67.5227 220.841 67.8907 220.937 68.232C221.044 68.5627 221.193 68.8507 221.385 69.096C221.577 69.3413 221.812 69.5333 222.089 69.672C222.367 69.8107 222.687 69.88 223.049 69.88C223.391 69.88 223.7 69.8107 223.977 69.672C224.255 69.5227 224.489 69.3253 224.681 69.08C224.873 68.8347 225.017 68.5413 225.113 68.2C225.22 67.8587 225.273 67.4907 225.273 67.096C225.273 66.296 225.076 65.6507 224.681 65.16C224.297 64.6693 223.759 64.424 223.065 64.424C222.724 64.424 222.409 64.4933 222.121 64.632C221.844 64.76 221.604 64.9467 221.401 65.192C221.209 65.4267 221.06 65.7093 220.953 66.04C220.847 66.3707 220.793 66.7333 220.793 67.128ZM225.289 69.832C225.108 70.2053 224.815 70.5307 224.409 70.808C224.015 71.0747 223.513 71.208 222.905 71.208C222.34 71.208 221.833 71.1067 221.385 70.904C220.937 70.6907 220.553 70.4027 220.233 70.04C219.924 69.6667 219.684 69.2347 219.513 68.744C219.343 68.2427 219.257 67.704 219.257 67.128C219.257 66.584 219.343 66.072 219.513 65.592C219.695 65.1013 219.945 64.6747 220.265 64.312C220.585 63.9387 220.969 63.6453 221.417 63.432C221.865 63.208 222.361 63.096 222.905 63.096C223.247 63.096 223.545 63.1333 223.801 63.208C224.068 63.2827 224.297 63.384 224.489 63.512C224.681 63.6293 224.841 63.768 224.969 63.928C225.097 64.0773 225.193 64.232 225.257 64.392V59.416H226.745V69.576C226.745 69.9493 226.756 70.264 226.777 70.52C226.799 70.776 226.815 70.936 226.825 71H225.369C225.348 70.9147 225.327 70.7813 225.305 70.6C225.295 70.408 225.289 70.1947 225.289 69.96V69.832ZM234.487 66.36C234.466 65.8053 234.279 65.3413 233.927 64.968C233.575 64.584 233.058 64.392 232.375 64.392C232.055 64.392 231.767 64.4507 231.511 64.568C231.266 64.6747 231.053 64.824 230.871 65.016C230.701 65.1973 230.562 65.4053 230.455 65.64C230.349 65.8747 230.29 66.1147 230.279 66.36H234.487ZM236.007 68.808C235.901 69.1493 235.741 69.4693 235.527 69.768C235.325 70.056 235.074 70.312 234.775 70.536C234.487 70.7493 234.157 70.92 233.783 71.048C233.41 71.176 232.999 71.24 232.551 71.24C232.039 71.24 231.549 71.1493 231.079 70.968C230.61 70.7867 230.194 70.52 229.831 70.168C229.479 69.816 229.197 69.384 228.983 68.872C228.781 68.36 228.679 67.7787 228.679 67.128C228.679 66.52 228.781 65.9707 228.983 65.48C229.186 64.9787 229.453 64.552 229.783 64.2C230.125 63.8373 230.519 63.56 230.967 63.368C231.415 63.1653 231.879 63.064 232.359 63.064C232.946 63.064 233.469 63.1653 233.927 63.368C234.397 63.56 234.786 63.832 235.095 64.184C235.405 64.536 235.639 64.9627 235.799 65.464C235.97 65.9547 236.055 66.4987 236.055 67.096C236.055 67.192 236.05 67.2827 236.039 67.368C236.039 67.4533 236.034 67.5227 236.023 67.576H230.231C230.242 67.9173 230.306 68.232 230.423 68.52C230.541 68.808 230.701 69.0587 230.903 69.272C231.117 69.4747 231.362 69.6347 231.639 69.752C231.927 69.8587 232.231 69.912 232.551 69.912C233.181 69.912 233.661 69.7627 233.991 69.464C234.322 69.1653 234.562 68.7973 234.711 68.36L236.007 68.808ZM241.271 69.896C241.591 69.896 241.895 69.8373 242.183 69.72C242.471 69.6027 242.727 69.4267 242.951 69.192C243.175 68.9573 243.351 68.6693 243.479 68.328C243.607 67.9867 243.671 67.592 243.671 67.144C243.671 66.696 243.607 66.3067 243.479 65.976C243.351 65.6347 243.175 65.3467 242.951 65.112C242.727 64.8773 242.471 64.7013 242.183 64.584C241.895 64.4667 241.591 64.408 241.271 64.408C240.951 64.408 240.647 64.4667 240.359 64.584C240.071 64.7013 239.815 64.8773 239.591 65.112C239.367 65.3467 239.191 65.6347 239.063 65.976C238.935 66.3067 238.871 66.696 238.871 67.144C238.871 67.592 238.935 67.9867 239.063 68.328C239.191 68.6693 239.367 68.9573 239.591 69.192C239.815 69.4267 240.071 69.6027 240.359 69.72C240.647 69.8373 240.951 69.896 241.271 69.896ZM241.271 63.064C241.847 63.064 242.375 63.1707 242.855 63.384C243.335 63.5867 243.751 63.8693 244.103 64.232C244.455 64.5947 244.727 65.0267 244.919 65.528C245.111 66.0187 245.207 66.5573 245.207 67.144C245.207 67.7307 245.111 68.2747 244.919 68.776C244.727 69.2773 244.455 69.7093 244.103 70.072C243.751 70.4347 243.335 70.7227 242.855 70.936C242.375 71.1387 241.847 71.24 241.271 71.24C240.695 71.24 240.167 71.1387 239.687 70.936C239.207 70.7227 238.791 70.4347 238.439 70.072C238.087 69.7093 237.815 69.2773 237.623 68.776C237.431 68.2747 237.335 67.7307 237.335 67.144C237.335 66.5573 237.431 66.0187 237.623 65.528C237.815 65.0267 238.087 64.5947 238.439 64.232C238.791 63.8693 239.207 63.5867 239.687 63.384C240.167 63.1707 240.695 63.064 241.271 63.064ZM252.636 71H251.132V59.416H252.636V64.2C252.913 63.7947 253.26 63.5067 253.676 63.336C254.092 63.1653 254.524 63.08 254.972 63.08C255.43 63.08 255.83 63.16 256.172 63.32C256.524 63.4693 256.812 63.6827 257.036 63.96C257.27 64.2267 257.441 64.5467 257.548 64.92C257.665 65.2933 257.724 65.6933 257.724 66.12V71H256.22V66.376C256.22 66.1093 256.188 65.8587 256.124 65.624C256.07 65.3893 255.969 65.1867 255.82 65.016C255.681 64.8347 255.494 64.696 255.26 64.6C255.036 64.4933 254.758 64.44 254.428 64.44C254.14 64.44 253.884 64.4933 253.66 64.6C253.446 64.7067 253.265 64.8507 253.116 65.032C252.966 65.2133 252.849 65.4267 252.764 65.672C252.689 65.9173 252.646 66.184 252.636 66.472V71ZM259.636 68.936C259.636 68.5947 259.695 68.2907 259.812 68.024C259.929 67.7467 260.089 67.512 260.292 67.32C260.505 67.128 260.756 66.9733 261.044 66.856C261.332 66.7387 261.641 66.6533 261.972 66.6L264.052 66.296C264.287 66.264 264.441 66.1947 264.516 66.088C264.601 65.9813 264.644 65.8587 264.644 65.72C264.644 65.3467 264.511 65.0267 264.244 64.76C263.988 64.4827 263.567 64.344 262.98 64.344C262.447 64.344 262.036 64.4933 261.748 64.792C261.46 65.08 261.289 65.448 261.236 65.896L259.796 65.56C259.839 65.1973 259.945 64.8613 260.116 64.552C260.297 64.2427 260.527 63.9813 260.804 63.768C261.081 63.544 261.401 63.3733 261.764 63.256C262.137 63.128 262.532 63.064 262.948 63.064C263.524 63.064 264.015 63.144 264.42 63.304C264.825 63.4533 265.156 63.656 265.412 63.912C265.668 64.168 265.855 64.4667 265.972 64.808C266.089 65.1493 266.148 65.5067 266.148 65.88V69.736C266.148 70.0773 266.159 70.3493 266.18 70.552C266.201 70.7547 266.223 70.904 266.244 71H264.772C264.751 70.904 264.729 70.776 264.708 70.616C264.697 70.456 264.692 70.2373 264.692 69.96C264.607 70.0987 264.495 70.2427 264.356 70.392C264.217 70.5413 264.047 70.68 263.844 70.808C263.641 70.936 263.401 71.0373 263.124 71.112C262.857 71.1973 262.553 71.24 262.212 71.24C261.817 71.24 261.46 71.176 261.14 71.048C260.831 70.92 260.564 70.7547 260.34 70.552C260.116 70.3387 259.94 70.0933 259.812 69.816C259.695 69.5387 259.636 69.2453 259.636 68.936ZM262.42 69.976C262.729 69.976 263.017 69.9387 263.284 69.864C263.561 69.7787 263.796 69.6507 263.988 69.48C264.191 69.2987 264.351 69.064 264.468 68.776C264.585 68.4773 264.644 68.12 264.644 67.704V67.352L262.292 67.704C261.972 67.7573 261.705 67.88 261.492 68.072C261.279 68.2533 261.172 68.5147 261.172 68.856C261.172 69.144 261.284 69.4053 261.508 69.64C261.732 69.864 262.036 69.976 262.42 69.976ZM269.131 68.52C269.184 68.9253 269.36 69.2667 269.659 69.544C269.958 69.8213 270.379 69.96 270.923 69.96C271.35 69.96 271.675 69.8587 271.899 69.656C272.123 69.4533 272.235 69.2133 272.235 68.936C272.235 68.6907 272.15 68.4827 271.979 68.312C271.808 68.1413 271.563 68.0187 271.243 67.944L269.931 67.656C269.323 67.528 268.848 67.272 268.507 66.888C268.176 66.504 268.011 66.04 268.011 65.496C268.011 65.1653 268.08 64.856 268.219 64.568C268.368 64.2693 268.566 64.008 268.811 63.784C269.056 63.56 269.344 63.384 269.675 63.256C270.016 63.128 270.374 63.064 270.747 63.064C271.27 63.064 271.707 63.1387 272.059 63.288C272.422 63.4373 272.715 63.624 272.939 63.848C273.163 64.0613 273.328 64.2853 273.435 64.52C273.552 64.7547 273.632 64.9573 273.675 65.128L272.347 65.624C272.326 65.528 272.288 65.4053 272.235 65.256C272.182 65.1067 272.096 64.968 271.979 64.84C271.862 64.7013 271.702 64.584 271.499 64.488C271.296 64.392 271.046 64.344 270.747 64.344C270.363 64.344 270.054 64.4507 269.819 64.664C269.584 64.8667 269.467 65.1013 269.467 65.368C269.467 65.8587 269.76 66.168 270.347 66.296L271.595 66.568C272.299 66.7173 272.827 66.9947 273.179 67.4C273.542 67.7947 273.723 68.28 273.723 68.856C273.723 69.1333 273.664 69.4107 273.547 69.688C273.43 69.9653 273.254 70.2213 273.019 70.456C272.795 70.6907 272.507 70.8773 272.155 71.016C271.803 71.1653 271.387 71.24 270.907 71.24C270.374 71.24 269.915 71.1653 269.531 71.016C269.158 70.8667 268.843 70.68 268.587 70.456C268.342 70.232 268.15 69.992 268.011 69.736C267.883 69.4693 267.803 69.224 267.771 69L269.131 68.52ZM279.725 71V59.416H281.213V64.392C281.395 64.0507 281.704 63.7467 282.141 63.48C282.579 63.2133 283.117 63.08 283.757 63.08C284.344 63.08 284.856 63.1867 285.293 63.4C285.731 63.6027 286.099 63.8907 286.397 64.264C286.696 64.6267 286.92 65.0533 287.069 65.544C287.219 66.0347 287.293 66.5573 287.293 67.112C287.293 67.688 287.213 68.2267 287.053 68.728C286.893 69.2187 286.659 69.6507 286.349 70.024C286.051 70.3867 285.677 70.6747 285.229 70.888C284.792 71.1013 284.285 71.208 283.709 71.208C283.133 71.208 282.632 71.0907 282.205 70.856C281.789 70.6213 281.459 70.296 281.213 69.88V71H279.725ZM285.757 67.112C285.757 66.28 285.555 65.624 285.149 65.144C284.744 64.6533 284.189 64.408 283.485 64.408C283.155 64.408 282.845 64.472 282.557 64.6C282.28 64.728 282.04 64.9093 281.837 65.144C281.635 65.368 281.475 65.6507 281.357 65.992C281.251 66.3227 281.197 66.696 281.197 67.112C281.197 67.528 281.251 67.9067 281.357 68.248C281.475 68.5893 281.635 68.8827 281.837 69.128C282.04 69.3627 282.28 69.544 282.557 69.672C282.845 69.8 283.155 69.864 283.485 69.864C284.179 69.864 284.728 69.6133 285.133 69.112C285.549 68.6107 285.757 67.944 285.757 67.112ZM294.394 66.36C294.372 65.8053 294.186 65.3413 293.834 64.968C293.482 64.584 292.964 64.392 292.282 64.392C291.962 64.392 291.674 64.4507 291.418 64.568C291.172 64.6747 290.959 64.824 290.778 65.016C290.607 65.1973 290.468 65.4053 290.362 65.64C290.255 65.8747 290.196 66.1147 290.186 66.36H294.394ZM295.914 68.808C295.807 69.1493 295.647 69.4693 295.434 69.768C295.231 70.056 294.98 70.312 294.682 70.536C294.394 70.7493 294.063 70.92 293.69 71.048C293.316 71.176 292.906 71.24 292.458 71.24C291.946 71.24 291.455 71.1493 290.986 70.968C290.516 70.7867 290.1 70.52 289.738 70.168C289.386 69.816 289.103 69.384 288.89 68.872C288.687 68.36 288.586 67.7787 288.586 67.128C288.586 66.52 288.687 65.9707 288.89 65.48C289.092 64.9787 289.359 64.552 289.69 64.2C290.031 63.8373 290.426 63.56 290.874 63.368C291.322 63.1653 291.786 63.064 292.266 63.064C292.852 63.064 293.375 63.1653 293.834 63.368C294.303 63.56 294.692 63.832 295.002 64.184C295.311 64.536 295.546 64.9627 295.706 65.464C295.876 65.9547 295.962 66.4987 295.962 67.096C295.962 67.192 295.956 67.2827 295.946 67.368C295.946 67.4533 295.94 67.5227 295.93 67.576H290.138C290.148 67.9173 290.212 68.232 290.33 68.52C290.447 68.808 290.607 69.0587 290.81 69.272C291.023 69.4747 291.268 69.6347 291.546 69.752C291.834 69.8587 292.138 69.912 292.458 69.912C293.087 69.912 293.567 69.7627 293.898 69.464C294.228 69.1653 294.468 68.7973 294.618 68.36L295.914 68.808ZM303.066 66.36C303.044 65.8053 302.858 65.3413 302.506 64.968C302.154 64.584 301.636 64.392 300.954 64.392C300.634 64.392 300.346 64.4507 300.09 64.568C299.844 64.6747 299.631 64.824 299.45 65.016C299.279 65.1973 299.14 65.4053 299.034 65.64C298.927 65.8747 298.868 66.1147 298.858 66.36H303.066ZM304.586 68.808C304.479 69.1493 304.319 69.4693 304.106 69.768C303.903 70.056 303.652 70.312 303.354 70.536C303.066 70.7493 302.735 70.92 302.362 71.048C301.988 71.176 301.578 71.24 301.13 71.24C300.618 71.24 300.127 71.1493 299.658 70.968C299.188 70.7867 298.772 70.52 298.41 70.168C298.058 69.816 297.775 69.384 297.562 68.872C297.359 68.36 297.258 67.7787 297.258 67.128C297.258 66.52 297.359 65.9707 297.562 65.48C297.764 64.9787 298.031 64.552 298.362 64.2C298.703 63.8373 299.098 63.56 299.546 63.368C299.994 63.1653 300.458 63.064 300.938 63.064C301.524 63.064 302.047 63.1653 302.506 63.368C302.975 63.56 303.364 63.832 303.674 64.184C303.983 64.536 304.218 64.9627 304.378 65.464C304.548 65.9547 304.634 66.4987 304.634 67.096C304.634 67.192 304.628 67.2827 304.618 67.368C304.618 67.4533 304.612 67.5227 304.602 67.576H298.81C298.82 67.9173 298.884 68.232 299.002 68.52C299.119 68.808 299.279 69.0587 299.482 69.272C299.695 69.4747 299.94 69.6347 300.218 69.752C300.506 69.8587 300.81 69.912 301.13 69.912C301.759 69.912 302.239 69.7627 302.57 69.464C302.9 69.1653 303.14 68.7973 303.29 68.36L304.586 68.808ZM308.057 71H306.553V63.304H308.025V64.408C308.303 63.928 308.655 63.5867 309.081 63.384C309.508 63.1813 309.945 63.08 310.393 63.08C310.852 63.08 311.252 63.16 311.593 63.32C311.945 63.4693 312.233 63.6827 312.457 63.96C312.692 64.2267 312.863 64.5467 312.969 64.92C313.087 65.2933 313.145 65.6933 313.145 66.12V71H311.641V66.376C311.641 66.1093 311.609 65.8587 311.545 65.624C311.492 65.3893 311.391 65.1867 311.241 65.016C311.103 64.8347 310.916 64.696 310.681 64.6C310.457 64.4933 310.18 64.44 309.849 64.44C309.551 64.44 309.289 64.4987 309.065 64.616C308.841 64.7227 308.655 64.872 308.505 65.064C308.356 65.256 308.244 65.48 308.169 65.736C308.095 65.992 308.057 66.264 308.057 66.552V71ZM322.77 64.456C322.46 64.456 322.167 64.5147 321.89 64.632C321.612 64.7387 321.362 64.904 321.138 65.128C320.924 65.352 320.754 65.6347 320.626 65.976C320.498 66.3067 320.434 66.696 320.434 67.144C320.434 67.5813 320.498 67.9707 320.626 68.312C320.754 68.6427 320.924 68.9253 321.138 69.16C321.351 69.384 321.602 69.5547 321.89 69.672C322.178 69.7893 322.476 69.848 322.786 69.848C323.148 69.848 323.452 69.7947 323.698 69.688C323.954 69.5813 324.162 69.448 324.322 69.288C324.492 69.128 324.626 68.9573 324.722 68.776C324.818 68.584 324.887 68.4133 324.93 68.264L326.258 68.84C326.162 69.1173 326.023 69.4 325.842 69.688C325.66 69.9653 325.426 70.2213 325.138 70.456C324.85 70.6907 324.508 70.8773 324.114 71.016C323.73 71.1653 323.287 71.24 322.786 71.24C322.22 71.24 321.698 71.1387 321.218 70.936C320.748 70.7227 320.343 70.4347 320.002 70.072C319.66 69.6987 319.388 69.2667 319.186 68.776C318.994 68.2747 318.898 67.7307 318.898 67.144C318.898 66.5467 318.994 65.9973 319.186 65.496C319.388 64.9947 319.66 64.568 320.002 64.216C320.354 63.8533 320.764 63.5707 321.234 63.368C321.714 63.1653 322.226 63.064 322.77 63.064C323.282 63.064 323.73 63.1387 324.114 63.288C324.508 63.4267 324.844 63.6133 325.122 63.848C325.41 64.0827 325.639 64.3493 325.81 64.648C325.98 64.936 326.108 65.224 326.194 65.512L324.834 66.088C324.78 65.896 324.706 65.704 324.61 65.512C324.514 65.32 324.38 65.1493 324.21 65C324.05 64.84 323.852 64.712 323.618 64.616C323.383 64.5093 323.1 64.456 322.77 64.456ZM332.294 64.824C332.07 64.792 331.852 64.776 331.638 64.776C331.009 64.776 330.497 64.9627 330.102 65.336C329.718 65.6987 329.526 66.3013 329.526 67.144V71H328.022V63.304H329.494V64.648C329.633 64.3493 329.793 64.1093 329.974 63.928C330.166 63.736 330.364 63.5867 330.566 63.48C330.769 63.3627 330.977 63.2827 331.19 63.24C331.404 63.1973 331.606 63.176 331.798 63.176C331.905 63.176 332.001 63.1813 332.086 63.192C332.182 63.2027 332.252 63.2133 332.294 63.224V64.824ZM337.115 69.896C337.435 69.896 337.739 69.8373 338.027 69.72C338.315 69.6027 338.571 69.4267 338.795 69.192C339.019 68.9573 339.195 68.6693 339.323 68.328C339.451 67.9867 339.515 67.592 339.515 67.144C339.515 66.696 339.451 66.3067 339.323 65.976C339.195 65.6347 339.019 65.3467 338.795 65.112C338.571 64.8773 338.315 64.7013 338.027 64.584C337.739 64.4667 337.435 64.408 337.115 64.408C336.795 64.408 336.491 64.4667 336.203 64.584C335.915 64.7013 335.659 64.8773 335.435 65.112C335.211 65.3467 335.035 65.6347 334.907 65.976C334.779 66.3067 334.715 66.696 334.715 67.144C334.715 67.592 334.779 67.9867 334.907 68.328C335.035 68.6693 335.211 68.9573 335.435 69.192C335.659 69.4267 335.915 69.6027 336.203 69.72C336.491 69.8373 336.795 69.896 337.115 69.896ZM337.115 63.064C337.691 63.064 338.219 63.1707 338.699 63.384C339.179 63.5867 339.595 63.8693 339.947 64.232C340.299 64.5947 340.571 65.0267 340.763 65.528C340.955 66.0187 341.051 66.5573 341.051 67.144C341.051 67.7307 340.955 68.2747 340.763 68.776C340.571 69.2773 340.299 69.7093 339.947 70.072C339.595 70.4347 339.179 70.7227 338.699 70.936C338.219 71.1387 337.691 71.24 337.115 71.24C336.539 71.24 336.011 71.1387 335.531 70.936C335.051 70.7227 334.635 70.4347 334.283 70.072C333.931 69.7093 333.659 69.2773 333.467 68.776C333.275 68.2747 333.179 67.7307 333.179 67.144C333.179 66.5573 333.275 66.0187 333.467 65.528C333.659 65.0267 333.931 64.5947 334.283 64.232C334.635 63.8693 335.051 63.5867 335.531 63.384C336.011 63.1707 336.539 63.064 337.115 63.064ZM342.975 74.04V63.304H344.431V64.504C344.645 64.12 344.97 63.7947 345.407 63.528C345.845 63.2613 346.378 63.128 347.007 63.128C347.583 63.128 348.09 63.2347 348.527 63.448C348.975 63.6507 349.343 63.9333 349.631 64.296C349.93 64.6587 350.154 65.0853 350.303 65.576C350.463 66.0667 350.543 66.5893 350.543 67.144C350.543 67.72 350.463 68.2533 350.303 68.744C350.143 69.2347 349.909 69.6667 349.599 70.04C349.29 70.4027 348.911 70.6907 348.463 70.904C348.026 71.1067 347.525 71.208 346.959 71.208C346.362 71.208 345.85 71.0853 345.423 70.84C344.997 70.5947 344.677 70.3013 344.463 69.96V74.04H342.975ZM349.007 67.144C349.007 66.76 348.954 66.408 348.847 66.088C348.741 65.7573 348.591 65.4747 348.399 65.24C348.207 64.9947 347.967 64.8027 347.679 64.664C347.402 64.5253 347.087 64.456 346.735 64.456C346.394 64.456 346.079 64.5253 345.791 64.664C345.514 64.8027 345.274 64.9947 345.071 65.24C344.869 65.4747 344.714 65.7573 344.607 66.088C344.501 66.408 344.447 66.76 344.447 67.144C344.447 67.5387 344.501 67.9067 344.607 68.248C344.714 68.5787 344.869 68.8667 345.071 69.112C345.274 69.3467 345.514 69.5333 345.791 69.672C346.079 69.8 346.394 69.864 346.735 69.864C347.087 69.864 347.402 69.8 347.679 69.672C347.957 69.5333 348.191 69.3467 348.383 69.112C348.586 68.8667 348.741 68.5787 348.847 68.248C348.954 67.9067 349.007 67.5387 349.007 67.144ZM352.46 74.04V63.304H353.916V64.504C354.129 64.12 354.454 63.7947 354.892 63.528C355.329 63.2613 355.862 63.128 356.492 63.128C357.068 63.128 357.574 63.2347 358.012 63.448C358.46 63.6507 358.828 63.9333 359.116 64.296C359.414 64.6587 359.638 65.0853 359.788 65.576C359.948 66.0667 360.028 66.5893 360.028 67.144C360.028 67.72 359.948 68.2533 359.788 68.744C359.628 69.2347 359.393 69.6667 359.084 70.04C358.774 70.4027 358.396 70.6907 357.948 70.904C357.51 71.1067 357.009 71.208 356.444 71.208C355.846 71.208 355.334 71.0853 354.908 70.84C354.481 70.5947 354.161 70.3013 353.948 69.96V74.04H352.46ZM358.492 67.144C358.492 66.76 358.438 66.408 358.332 66.088C358.225 65.7573 358.076 65.4747 357.884 65.24C357.692 64.9947 357.452 64.8027 357.164 64.664C356.886 64.5253 356.572 64.456 356.22 64.456C355.878 64.456 355.564 64.5253 355.276 64.664C354.998 64.8027 354.758 64.9947 354.556 65.24C354.353 65.4747 354.198 65.7573 354.092 66.088C353.985 66.408 353.932 66.76 353.932 67.144C353.932 67.5387 353.985 67.9067 354.092 68.248C354.198 68.5787 354.353 68.8667 354.556 69.112C354.758 69.3467 354.998 69.5333 355.276 69.672C355.564 69.8 355.878 69.864 356.22 69.864C356.572 69.864 356.886 69.8 357.164 69.672C357.441 69.5333 357.676 69.3467 357.868 69.112C358.07 68.8667 358.225 68.5787 358.332 68.248C358.438 67.9067 358.492 67.5387 358.492 67.144ZM367.128 66.36C367.107 65.8053 366.92 65.3413 366.568 64.968C366.216 64.584 365.699 64.392 365.016 64.392C364.696 64.392 364.408 64.4507 364.152 64.568C363.907 64.6747 363.693 64.824 363.512 65.016C363.341 65.1973 363.203 65.4053 363.096 65.64C362.989 65.8747 362.931 66.1147 362.92 66.36H367.128ZM368.648 68.808C368.541 69.1493 368.381 69.4693 368.168 69.768C367.965 70.056 367.715 70.312 367.416 70.536C367.128 70.7493 366.797 70.92 366.424 71.048C366.051 71.176 365.64 71.24 365.192 71.24C364.68 71.24 364.189 71.1493 363.72 70.968C363.251 70.7867 362.835 70.52 362.472 70.168C362.12 69.816 361.837 69.384 361.624 68.872C361.421 68.36 361.32 67.7787 361.32 67.128C361.32 66.52 361.421 65.9707 361.624 65.48C361.827 64.9787 362.093 64.552 362.424 64.2C362.765 63.8373 363.16 63.56 363.608 63.368C364.056 63.1653 364.52 63.064 365 63.064C365.587 63.064 366.109 63.1653 366.568 63.368C367.037 63.56 367.427 63.832 367.736 64.184C368.045 64.536 368.28 64.9627 368.44 65.464C368.611 65.9547 368.696 66.4987 368.696 67.096C368.696 67.192 368.691 67.2827 368.68 67.368C368.68 67.4533 368.675 67.5227 368.664 67.576H362.872C362.883 67.9173 362.947 68.232 363.064 68.52C363.181 68.808 363.341 69.0587 363.544 69.272C363.757 69.4747 364.003 69.6347 364.28 69.752C364.568 69.8587 364.872 69.912 365.192 69.912C365.821 69.912 366.301 69.7627 366.632 69.464C366.963 69.1653 367.203 68.7973 367.352 68.36L368.648 68.808ZM371.512 67.128C371.512 67.5227 371.56 67.8907 371.656 68.232C371.763 68.5627 371.912 68.8507 372.104 69.096C372.296 69.3413 372.531 69.5333 372.808 69.672C373.085 69.8107 373.405 69.88 373.768 69.88C374.109 69.88 374.419 69.8107 374.696 69.672C374.973 69.5227 375.208 69.3253 375.4 69.08C375.592 68.8347 375.736 68.5413 375.832 68.2C375.939 67.8587 375.992 67.4907 375.992 67.096C375.992 66.296 375.795 65.6507 375.4 65.16C375.016 64.6693 374.477 64.424 373.784 64.424C373.443 64.424 373.128 64.4933 372.84 64.632C372.563 64.76 372.323 64.9467 372.12 65.192C371.928 65.4267 371.779 65.7093 371.672 66.04C371.565 66.3707 371.512 66.7333 371.512 67.128ZM376.008 69.832C375.827 70.2053 375.533 70.5307 375.128 70.808C374.733 71.0747 374.232 71.208 373.624 71.208C373.059 71.208 372.552 71.1067 372.104 70.904C371.656 70.6907 371.272 70.4027 370.952 70.04C370.643 69.6667 370.403 69.2347 370.232 68.744C370.061 68.2427 369.976 67.704 369.976 67.128C369.976 66.584 370.061 66.072 370.232 65.592C370.413 65.1013 370.664 64.6747 370.984 64.312C371.304 63.9387 371.688 63.6453 372.136 63.432C372.584 63.208 373.08 63.096 373.624 63.096C373.965 63.096 374.264 63.1333 374.52 63.208C374.787 63.2827 375.016 63.384 375.208 63.512C375.4 63.6293 375.56 63.768 375.688 63.928C375.816 64.0773 375.912 64.232 375.976 64.392V59.416H377.464V69.576C377.464 69.9493 377.475 70.264 377.496 70.52C377.517 70.776 377.533 70.936 377.544 71H376.088C376.067 70.9147 376.045 70.7813 376.024 70.6C376.013 70.408 376.008 70.1947 376.008 69.96V69.832ZM381.766 67.752H380.694L380.278 59.656H382.166L381.766 67.752ZM380.182 70.04C380.182 69.752 380.284 69.5067 380.486 69.304C380.689 69.0907 380.934 68.984 381.222 68.984C381.51 68.984 381.756 69.0907 381.958 69.304C382.172 69.5067 382.278 69.752 382.278 70.04C382.278 70.328 382.172 70.5733 381.958 70.776C381.756 70.9787 381.51 71.08 381.222 71.08C380.934 71.08 380.689 70.9787 380.486 70.776C380.284 70.5733 380.182 70.328 380.182 70.04Z" fill="#F5A837"/>
<path fill-rule="evenodd" clip-rule="evenodd" d="M170 316L160 308L170 300V316Z" fill="#302E28" stroke="#302E28" stroke-width="2" stroke-linecap="round" stroke-linejoin="round"/>
<path fill-rule="evenodd" clip-rule="evenodd" d="M156 315V301Z" fill="#302E28"/>
<path d="M156 315V301" stroke="#302E28" stroke-width="2" stroke-linecap="round" stroke-linejoin="round"/>
<path fill-rule="evenodd" clip-rule="evenodd" d="M213.333 293L236.667 308L213.333 323V293Z" fill="#302E28" stroke="#302E28" stroke-width="2" stroke-linecap="round" stroke-linejoin="round"/>
<path fill-rule="evenodd" clip-rule="evenodd" d="M279 300L289 308L279 316V300Z" fill="#302E28" stroke="#302E28" stroke-width="2" stroke-linecap="round" stroke-linejoin="round"/>
<path fill-rule="evenodd" clip-rule="evenodd" d="M293 301V315Z" fill="#302E28"/>
<path d="M293 301V315" stroke="#302E28" stroke-width="2" stroke-linecap="round" stroke-linejoin="round"/>
<line x1="51" y1="269" x2="398" y2="269" stroke="#E2E1E1" stroke-width="6"/>
<line x1="51" y1="269" x2="92" y2="269" stroke="#F5A837" stroke-width="6"/>
<circle cx="92" cy="269" r="8" fill="#F5A837"/>
</g>
</g>
<defs>
<filter id="filter0_d" x="0" y="0" width="450" height="381" filterUnits="userSpaceOnUse" color-interpolation-filters="sRGB">
<feFlood flood-opacity="0" result="BackgroundImageFix"/>
<feColorMatrix in="SourceAlpha" type="matrix" values="0 0 0 0 0 0 0 0 0 0 0 0 0 0 0 0 0 0 127 0"/>
<feOffset dy="2"/>
<feGaussianBlur stdDeviation="7.5"/>
<feColorMatrix type="matrix" values="0 0 0 0 1 0 0 0 0 0.94902 0 0 0 0 0.815686 0 0 0 0.45 0"/>
<feBlend mode="normal" in2="BackgroundImageFix" result="effect1_dropShadow"/>
<feBlend mode="normal" in="SourceGraphic" in2="effect1_dropShadow" result="shape"/>
</filter>
<filter id="filter1_d" x="5" y="5" width="440" height="371" filterUnits="userSpaceOnUse" color-interpolation-filters="sRGB">
<feFlood flood-opacity="0" result="BackgroundImageFix"/>
<feColorMatrix in="SourceAlpha" type="matrix" values="0 0 0 0 0 0 0 0 0 0 0 0 0 0 0 0 0 0 127 0"/>
<feOffset dy="2"/>
<feGaussianBlur stdDeviation="5"/>
<feColorMatrix type="matrix" values="0 0 0 0 0 0 0 0 0 0 0 0 0 0 0 0 0 0 0.05 0"/>
<feBlend mode="normal" in2="BackgroundImageFix" result="effect1_dropShadow"/>
<feBlend mode="normal" in="SourceGraphic" in2="effect1_dropShadow" result="shape"/>
</filter>
<filter id="filter2_d" x="0" y="0" width="449" height="381" filterUnits="userSpaceOnUse" color-interpolation-filters="sRGB">
<feFlood flood-opacity="0" result="BackgroundImageFix"/>
<feColorMatrix in="SourceAlpha" type="matrix" values="0 0 0 0 0 0 0 0 0 0 0 0 0 0 0 0 0 0 127 0"/>
<feOffset dy="2"/>
<feGaussianBlur stdDeviation="7.5"/>
<feColorMatrix type="matrix" values="0 0 0 0 1 0 0 0 0 0.94902 0 0 0 0 0.815686 0 0 0 0.45 0"/>
<feBlend mode="normal" in2="BackgroundImageFix" result="effect1_dropShadow"/>
<feBlend mode="normal" in="SourceGraphic" in2="effect1_dropShadow" result="shape"/>
</filter>
</defs>
</svg>
