<svg width="391" height="284" viewBox="0 0 391 284" fill="none" xmlns="http://www.w3.org/2000/svg">
<path d="M146.418 151.28C146.418 145.058 144.748 130.498 154.954 112.08C186.082 122.533 193.864 142.569 193.864 151.28L169.625 156.258L120.509 196.08C118.808 186.124 119.587 172.043 133.905 168.08C147.576 164.296 146.418 157.502 146.418 151.28Z" fill="black" stroke="black" stroke-width="0.621372"/>
<path d="M244.18 151.28C244.18 145.058 245.669 130.498 236.567 112.08C208.804 122.533 201.864 142.569 201.864 151.28L223.482 156.258L267.288 196.08C268.805 186.124 268.111 172.043 255.341 168.08C243.148 164.296 244.18 157.502 244.18 151.28Z" fill="black" stroke="black" stroke-width="0.621372"/>
<ellipse cx="194.995" cy="176.515" rx="29.815" ry="47.5893" transform="rotate(90 194.995 176.515)" fill="#F8D6D3"/>
<line x1="27" y1="258.148" x2="362.992" y2="258.148" stroke="#F5A837" stroke-width="1.86412"/>
<path d="M190.45 142.616C195.044 138.822 201.684 138.822 206.278 142.616L219.509 153.545L318.216 235.071C327.199 242.49 321.953 257.08 310.302 257.08H86.4253C74.7748 257.08 69.5286 242.49 78.5113 235.071L174.42 155.856L186.392 145.968L190.45 142.616Z" fill="#F8D6D3"/>
<path d="M227.104 151.86C202.793 162.868 174.927 156.447 164.034 151.86L104.977 201.743C184.331 255.868 258.448 224.295 285.587 201.743L227.104 151.86Z" fill="white"/>
<ellipse cx="195.569" cy="101.978" rx="35.5486" ry="43.5758" fill="#F8D6D3"/>
<ellipse cx="234.267" cy="104.683" rx="7.02302" ry="8.52795" transform="rotate(25.7446 234.267 104.683)" fill="#F8D6D3"/>
<ellipse cx="157.52" cy="105.621" rx="6.26559" ry="8.90106" transform="rotate(-20.3266 157.52 105.621)" fill="#F8D6D3"/>
<rect x="187.543" y="136.38" width="17.201" height="14.9075" fill="#F8D6D3"/>
<path d="M197.799 91.3577C184.663 106.021 167.368 106.397 160.362 104.752C157.21 104.294 154.233 98.9214 153.138 96.2926C154.889 81.018 166.028 56.1086 197.799 56.1086C228.666 56.1086 239.546 83.4246 237.821 96.2926L231.527 102.798C220.031 108.007 201.521 96.9975 197.799 91.3577Z" fill="black" stroke="black" stroke-width="0.621372"/>
<ellipse cx="195.569" cy="46.3612" rx="22.9346" ry="22.3612" fill="black"/>
<ellipse cx="183.527" cy="116.886" rx="2.86683" ry="3.44019" fill="black"/>
<ellipse cx="209.904" cy="116.886" rx="2.86683" ry="3.44019" fill="black"/>
<ellipse cx="178.941" cy="126.06" rx="1.14673" ry="4.01356" transform="rotate(-90 178.941 126.06)" fill="#FDFFFF"/>
<ellipse cx="213.344" cy="126.06" rx="1.14673" ry="4.01356" transform="rotate(-90 213.344 126.06)" fill="#FDFFFF"/>
<path d="M178.603 112.161C179.561 110.63 182.352 108.01 185.854 109.782" stroke="black" stroke-width="0.621372"/>
<path d="M208.864 109.502C210.582 108.944 214.404 108.731 215.949 112.338" stroke="black" stroke-width="0.621372"/>
<path d="M176.237 59.2076C175.942 59.0332 175.561 59.1316 175.386 59.4272C175.212 59.7228 175.31 60.1037 175.606 60.278L176.237 59.2076ZM216.227 59.4459C216.534 59.2922 216.658 58.9189 216.504 58.612C216.351 58.3052 215.977 58.181 215.671 58.3347L216.227 59.4459ZM175.606 60.278C181.627 63.8284 198.07 68.5396 216.227 59.4459L215.671 58.3347C197.946 67.212 181.951 62.5768 176.237 59.2076L175.606 60.278Z" fill="#F5A837"/>
<path d="M136.782 227.797L110.977 230.09" stroke="black" stroke-width="0.621372"/>
<path d="M280.864 230.091L255.058 228.944" stroke="black" stroke-width="0.621372"/>
<rect x="132.498" y="170.781" width="126.14" height="84.8581" rx="4.97098" fill="#E5E5E5"/>
<rect x="286.16" y="96.244" width="79.1244" height="48.1627" rx="6.21372" fill="#F5A837"/>
<path d="M296.051 154.728V139.82H308.414L296.051 154.728Z" fill="#F5A837"/>
<path d="M311.363 108.79C312.273 108.79 313.031 109.198 313.638 110.015C314.268 110.808 314.524 111.73 314.408 112.78L312.938 126.92C312.914 127.387 312.739 127.783 312.413 128.11C312.109 128.413 311.759 128.565 311.363 128.565C310.919 128.565 310.546 128.413 310.243 128.11C309.939 127.783 309.764 127.387 309.718 126.92L308.248 112.78C308.131 111.706 308.388 110.773 309.018 109.98C309.648 109.187 310.429 108.79 311.363 108.79ZM309.648 130.315C310.138 129.942 310.709 129.755 311.363 129.755C312.016 129.755 312.576 129.942 313.043 130.315C313.509 130.688 313.743 131.132 313.743 131.645C313.743 132.182 313.509 132.637 313.043 133.01C312.576 133.36 312.016 133.535 311.363 133.535C310.686 133.535 310.103 133.36 309.613 133.01C309.146 132.637 308.913 132.182 308.913 131.645C308.913 131.132 309.158 130.688 309.648 130.315ZM326.463 108.79C327.373 108.79 328.132 109.198 328.738 110.015C329.368 110.808 329.625 111.73 329.508 112.78L328.038 126.92C328.015 127.387 327.84 127.783 327.513 128.11C327.21 128.413 326.86 128.565 326.463 128.565C326.02 128.565 325.647 128.413 325.343 128.11C325.04 127.783 324.865 127.387 324.818 126.92L323.348 112.78C323.232 111.706 323.488 110.773 324.118 109.98C324.748 109.187 325.53 108.79 326.463 108.79ZM324.748 130.315C325.238 129.942 325.81 129.755 326.463 129.755C327.117 129.755 327.677 129.942 328.143 130.315C328.61 130.688 328.843 131.132 328.843 131.645C328.843 132.182 328.61 132.637 328.143 133.01C327.677 133.36 327.117 133.535 326.463 133.535C325.787 133.535 325.203 133.36 324.713 133.01C324.247 132.637 324.013 132.182 324.013 131.645C324.013 131.132 324.258 130.688 324.748 130.315ZM341.564 108.79C342.474 108.79 343.232 109.198 343.839 110.015C344.469 110.808 344.726 111.73 344.609 112.78L343.139 126.92C343.116 127.387 342.941 127.783 342.614 128.11C342.311 128.413 341.961 128.565 341.564 128.565C341.121 128.565 340.747 128.413 340.444 128.11C340.141 127.783 339.966 127.387 339.919 126.92L338.449 112.78C338.332 111.706 338.589 110.773 339.219 109.98C339.849 109.187 340.631 108.79 341.564 108.79ZM339.849 130.315C340.339 129.942 340.911 129.755 341.564 129.755C342.217 129.755 342.777 129.942 343.244 130.315C343.711 130.688 343.944 131.132 343.944 131.645C343.944 132.182 343.711 132.637 343.244 133.01C342.777 133.36 342.217 133.535 341.564 133.535C340.887 133.535 340.304 133.36 339.814 133.01C339.347 132.637 339.114 132.182 339.114 131.645C339.114 131.132 339.359 130.688 339.849 130.315Z" fill="#FFFAEF"/>
<ellipse cx="194.864" cy="214.58" rx="9" ry="9.5" fill="#FDFFFF"/>
<path d="M195.739 120.08L193.864 131.78L198.864 133.08" stroke="black" stroke-width="0.621372" stroke-linecap="round"/>
<path d="M197.864 139.368C199.382 139.295 202.842 138.631 204.541 136.557" stroke="black" stroke-width="0.621372"/>
</svg>
