<svg width="54" height="64" viewBox="0 0 54 64" fill="none" xmlns="http://www.w3.org/2000/svg">
<path d="M28.3867 2.03534C28.3867 0.480846 22.6231 -1.0737 23.7757 0.998994C24.7171 2.69172 24.1209 7.14928 23.8706 8.72672H19.8831C8.90196 8.72672 0 17.7175 0 28.8081C0 29.5475 0.593465 30.1469 1.32554 30.1469H51.827C52.5591 30.1469 53.1525 29.5475 53.1525 28.8081C53.1525 17.7175 44.2505 8.72672 33.2694 8.72672H27.8052C27.3812 7.73656 27.7678 5.71602 28.0813 4.07792C28.2438 3.22864 28.3867 2.48215 28.3867 2.03534Z" fill="#F5A837"/>
<path d="M29.3427 7.56759C29.7362 5.254 32.094 0.91744 38.3767 2.07999C38.1226 4.37678 35.9601 8.68981 29.3427 7.56759Z" fill="#F5A837"/>
<path d="M1.68745 34.3615C1.68745 33.3483 2.50072 32.5269 3.50393 32.5269H48.8051C49.8083 32.5269 50.6215 33.3483 50.6215 34.3615V37.1694C50.6215 50.0288 40.896 60.5939 28.4686 61.7714C28.4298 62.1039 28.2982 62.4351 28.0571 62.7295L27.5668 63.3284C26.8337 64.2238 25.4747 64.2238 24.7417 63.3284L24.2514 62.7295C24.0103 62.435 23.8787 62.1038 23.8399 61.7714C11.4127 60.5936 1.68745 50.0286 1.68745 37.1694V34.3615Z" fill="#F5A837"/>
</svg>
