<svg width="1440" height="690" viewBox="0 0 1440 690" fill="none" xmlns="http://www.w3.org/2000/svg">
<g clip-path="url(#clip0)">
<path d="M1343.45 142.843L1345.48 142.189L1345.16 140.082C1344.5 135.788 1343.08 127.587 1340.85 119.534C1339.73 115.508 1338.4 111.465 1336.83 107.941C1335.29 104.464 1333.42 101.273 1331.13 99.15C1330.55 98.6024 1330.34 98.2512 1330.27 98.0931C1330.32 98.037 1330.41 97.9555 1330.56 97.8499C1331.71 97.0238 1334.36 96.2826 1337.89 96.0408C1341.29 95.8076 1345 96.0727 1347.94 96.8281C1349.42 97.2064 1350.58 97.6803 1351.4 98.1967C1352.23 98.7206 1352.5 99.1564 1352.58 99.3951C1353.22 101.399 1353.69 105.157 1354.27 109.916L1354.28 109.975C1354.82 114.399 1355.44 119.474 1356.41 123.999C1357.36 128.422 1358.75 132.848 1361.13 135.566L1362.21 136.803L1363.77 136.299L1391.99 127.212C1447.38 109.375 1506.8 139.956 1524.7 195.54C1525.5 198.025 1524.14 200.674 1521.68 201.465L1260.88 285.455C1258.42 286.247 1255.77 284.891 1254.97 282.405C1237.07 226.822 1267.48 167.312 1322.86 149.475L1343.45 142.843ZM1330.2 98.185C1330.2 98.1849 1330.2 98.1761 1330.21 98.1586C1330.21 98.1763 1330.2 98.1851 1330.2 98.185ZM1453.07 402.615L1451.22 403.413L1451.61 405.397C1451.87 406.702 1451.77 408.131 1451.19 409.59L1449.65 413.477C1447.93 417.828 1442.68 419.519 1438.74 416.993L1435.21 414.736C1433.89 413.89 1432.98 412.782 1432.43 411.572L1431.59 409.733L1429.62 410.17C1364.75 424.519 1298.34 387.218 1277.5 322.489L1272.86 308.085C1271.61 304.195 1273.74 300.043 1277.59 298.8L1511.54 223.459C1515.4 222.216 1519.55 224.345 1520.8 228.235L1525.44 242.639C1546.29 307.368 1514.13 376.414 1453.07 402.615ZM1400.13 105.145C1395.61 112.618 1387 119.656 1371.26 122.519C1370.96 116.815 1372.11 109.105 1376.4 102.125C1381.05 94.5542 1389.54 87.6033 1404.53 85.0817C1405.14 90.6237 1404.32 98.2013 1400.13 105.145Z" stroke="#F5A837" stroke-opacity="0.1" stroke-width="5"/>
<path d="M89.0883 342.187L91.1124 342.858L92.0944 340.965C94.1978 336.911 98.0858 329.077 101.192 320.864C102.745 316.759 104.123 312.506 104.98 308.551C105.826 304.645 106.217 300.797 105.602 297.603C105.414 296.626 105.499 296.182 105.543 296.035C105.622 296.012 105.776 295.984 106.048 295.987C107.58 296.005 110.309 297.034 113.459 299.024C116.501 300.946 119.5 303.487 121.536 305.966C122.555 307.208 123.262 308.347 123.641 309.31C124.026 310.286 123.992 310.855 123.896 311.144C123.194 313.261 121.251 316.755 118.79 321.148L118.761 321.2C116.47 325.29 113.845 329.977 111.863 334.416C109.923 338.76 108.366 343.352 108.692 347.097L108.835 348.736L110.396 349.253L139.986 359.067C198.136 378.352 229.604 441.283 210.251 499.638C209.364 502.312 206.491 503.75 203.844 502.872L-69.6415 412.171C-72.2883 411.293 -73.7323 408.423 -72.8455 405.749C-53.4923 347.394 9.34472 315.74 67.4942 335.025L89.0883 342.187ZM20.7054 630.969L18.7351 630.515L17.8793 632.347C17.2766 633.636 16.2944 634.811 14.876 635.703L11.1524 638.044C6.91645 640.707 1.32076 638.851 -0.48429 634.185L-2.07103 630.083C-2.67547 628.52 -2.76084 626.991 -2.47326 625.596L-2.06484 623.616L-3.91582 622.803C-67.9375 594.665 -101.156 521.697 -78.6237 453.756L-73.6144 438.652C-72.2391 434.505 -67.7796 432.267 -63.6645 433.632L181.659 514.993C185.774 516.358 188.012 520.817 186.637 524.964L181.628 540.068C159.095 608.01 88.8542 646.666 20.7054 630.969ZM105.5 296.051C105.485 296.063 105.474 296.068 105.473 296.067C105.472 296.066 105.48 296.059 105.5 296.051ZM160.605 345.636C152.068 349.199 140.309 349.812 125.081 342.385C128.368 337.312 134.177 331.394 142.245 328.096C150.956 324.535 162.557 323.919 176.934 331.171C174.012 336.3 168.57 342.311 160.605 345.636Z" stroke="#F5A837" stroke-opacity="0.1" stroke-width="5"/>
<path d="M344.666 -23.1409L346.064 -21.5307L347.875 -22.6572C349.933 -23.9378 353.843 -26.4681 357.509 -29.3936C359.341 -30.8555 361.156 -32.4512 362.661 -34.0704C363.924 -35.4291 365.091 -36.9325 365.814 -38.4934C366.201 -38.0068 366.665 -37.3035 367.139 -36.3734C367.954 -34.7756 368.582 -32.94 368.815 -31.4185C368.932 -30.6552 368.932 -30.0816 368.871 -29.7062C368.85 -29.5725 368.825 -29.4911 368.809 -29.4475C368 -28.7737 366.344 -27.8026 364.069 -26.4858L364.02 -26.4571C361.898 -25.2292 359.411 -23.7905 357.277 -22.2819C355.228 -20.8341 353.054 -19.0232 352.05 -16.9391L351.337 -15.4574L352.415 -14.2155L363.176 -1.82034C383.891 22.0415 381.286 58.2443 357.333 79.0391C356.704 79.5853 355.765 79.5123 355.233 78.9L255.778 -35.6599C255.246 -36.2723 255.306 -37.2127 255.935 -37.7589C279.888 -58.5538 316.098 -56.0483 336.813 -32.1865L344.666 -23.1409ZM366.283 -39.5961C366.283 -39.5958 366.28 -39.5906 366.272 -39.5815C366.279 -39.592 366.283 -39.5965 366.283 -39.5961ZM368.792 -29.4067C368.792 -29.4067 368.792 -29.4081 368.794 -29.4106C368.793 -29.4079 368.792 -29.4066 368.792 -29.4067ZM237.812 87.6055L236.349 86.2096L234.679 87.348C234.244 87.6439 233.704 87.839 233.053 87.8557L230.738 87.915C228.848 87.9635 227.39 86.284 227.704 84.4201L228.088 82.1363C228.196 81.4938 228.465 80.9864 228.819 80.598L230.181 79.1036L229.004 77.4593C207.931 48.0094 212.421 6.7302 240.418 -17.575L246.745 -23.0677C247.991 -24.1495 249.864 -24.0122 250.929 -22.7848L340.143 79.9784C341.209 81.2058 341.082 83.0792 339.836 84.161L333.509 89.6537C305.512 113.959 264.01 112.607 237.812 87.6055ZM377.18 -4.30934C372.988 -4.90085 368.105 -7.30478 363.581 -13.6534C366.166 -14.6906 369.6 -15.383 373.241 -14.8418C377.529 -14.2046 382.351 -11.8228 386.577 -5.74374C384.121 -4.60248 380.791 -3.79978 377.18 -4.30934Z" stroke="#F5A837" stroke-opacity="0.1" stroke-width="5"/>
<path d="M1037.23 561.996L1039.31 562.489L1040.12 560.518C1040.69 559.136 1041.75 556.451 1042.54 553.644C1042.93 552.242 1043.28 550.754 1043.45 549.352C1043.53 548.736 1043.58 548.087 1043.58 547.437C1044.43 547.892 1045.24 548.484 1045.78 549.035C1045.94 549.197 1046.05 549.331 1046.13 549.433C1045.93 549.99 1045.55 550.861 1044.99 552.086L1044.97 552.136C1044.36 553.488 1043.63 555.119 1043.09 556.668C1042.59 558.117 1042.07 560.002 1042.36 561.662L1042.65 563.282L1044.25 563.662L1053.99 565.976C1072.2 570.3 1083.46 588.604 1079.16 606.89L989.249 585.538C993.623 567.267 1011.91 555.983 1030.12 560.307L1037.23 561.996ZM1043.28 545.081C1043.28 545.082 1043.28 545.091 1043.28 545.109C1043.28 545.09 1043.28 545.081 1043.28 545.081ZM1046.25 549.639C1046.25 549.639 1046.25 549.637 1046.25 549.631C1046.25 549.637 1046.25 549.639 1046.25 549.639ZM1059.82 557.948C1058.01 558.897 1055.41 559.44 1051.8 558.485C1052.6 557.507 1053.68 556.549 1055.02 555.86C1056.9 554.892 1059.48 554.363 1062.9 555.301C1062.16 556.284 1061.14 557.255 1059.82 557.948ZM1024.04 652.981L1022.04 652.7L1021.35 654.599C1021.3 654.727 1021.22 654.861 1021.05 654.986L1019.92 655.839C1019.49 656.165 1018.88 656.019 1018.64 655.535L1018.02 654.266C1017.93 654.08 1017.91 653.921 1017.93 653.786L1018.16 651.778L1016.25 651.129C995.801 644.193 983.617 622.636 988.726 601.122L989.907 596.149C990.016 595.69 990.47 595.419 990.908 595.523L1071.68 614.706C1072.12 614.81 1072.4 615.256 1072.29 615.714L1071.11 620.687C1066 642.202 1045.43 655.979 1024.04 652.981Z" stroke="#F5A837" stroke-opacity="0.1" stroke-width="5"/>
<path d="M572.456 533.115L573.909 532.775L573.803 531.286C573.736 530.346 573.574 528.532 573.228 526.721C573.056 525.816 572.83 524.873 572.533 524.023C572.434 523.741 572.321 523.45 572.19 523.162C572.681 523.199 573.162 523.291 573.528 523.418C573.607 523.446 573.673 523.472 573.725 523.495C573.764 523.854 573.79 524.412 573.821 525.194L573.822 525.232C573.859 526.162 573.904 527.292 574.038 528.322C574.164 529.279 574.405 530.527 575.065 531.419L575.75 532.345L576.87 532.083L583.001 530.648C594.305 528.004 605.629 534.992 608.392 546.292L552.166 559.446C549.63 548.093 556.678 536.806 567.982 534.162L572.456 533.115ZM571.207 521.619C571.208 521.619 571.212 521.624 571.218 521.633C571.21 521.623 571.207 521.619 571.207 521.619ZM573.907 523.593C573.907 523.593 573.905 523.593 573.903 523.591C573.906 523.593 573.907 523.593 573.907 523.593ZM583.84 524.218C583.147 525.178 581.953 526.149 579.867 526.64C580.053 525.965 580.362 525.254 580.841 524.602C581.567 523.61 582.757 522.651 584.745 522.199C584.593 522.862 584.309 523.568 583.84 524.218ZM590.489 587.661L589.148 588.111L589.307 589.517C589.31 589.546 589.31 589.575 589.304 589.606C589.299 589.636 589.288 589.674 589.266 589.72L588.872 590.516C588.771 590.72 588.513 590.78 588.332 590.642L587.626 590.103C587.585 590.072 587.558 590.043 587.54 590.018C587.522 589.993 587.508 589.968 587.499 589.94L587.018 588.609L585.615 588.801C572.256 590.629 559.434 581.981 556.288 568.533L555.556 565.404C555.511 565.211 555.631 565.027 555.81 564.985L606.637 553.095C606.816 553.053 607.005 553.164 607.05 553.357L607.783 556.486C610.929 569.934 603.273 583.373 590.489 587.661Z" stroke="#F5A837" stroke-opacity="0.1" stroke-width="3.5"/>
<path d="M882.263 58.8039L883.693 58.3783L883.499 56.8984C883.333 55.6362 882.97 53.2118 882.364 50.8134C882.06 49.6151 881.687 48.3847 881.23 47.2921C880.948 46.6171 880.608 45.9311 880.193 45.3223C880.355 45.3041 880.529 45.2903 880.711 45.282C881.609 45.2407 882.568 45.3353 883.288 45.5375C883.613 45.629 883.828 45.7256 883.951 45.799C884.067 46.3119 884.162 47.2092 884.288 48.474L886.029 48.3014L884.288 48.474L884.291 48.5132C884.417 49.781 884.567 51.2901 884.827 52.6502C885.074 53.9382 885.481 55.4665 886.336 56.4893L887.074 57.3726L888.178 57.0444L896.393 54.6009C911.97 49.9672 928.377 58.8784 933.029 74.5191C933.083 74.7019 932.978 74.8845 932.809 74.9348L856.885 97.5186C856.716 97.5689 856.528 97.4734 856.474 97.2906C851.821 81.6499 860.69 65.2207 876.268 60.5871L882.263 58.8039ZM879.336 44.2956C879.337 44.2956 879.341 44.3008 879.348 44.3111C879.339 44.3007 879.336 44.2955 879.336 44.2956ZM884.038 45.8593C884.038 45.8594 884.036 45.8577 884.032 45.8542C884.036 45.8576 884.038 45.8593 884.038 45.8593ZM891.215 50.8715C891.349 49.6075 891.759 48.1531 892.619 46.8214C893.717 45.1199 895.635 43.4865 898.99 42.747C898.921 43.9787 898.57 45.4143 897.727 46.7402C896.672 48.4012 894.739 50.0568 891.215 50.8715ZM910.272 133.189L910.514 134.584C910.547 134.771 910.532 134.983 910.434 135.217L909.963 136.33C909.687 136.982 908.891 137.219 908.304 136.824L907.301 136.149C907.091 136.007 906.962 135.837 906.887 135.663L906.328 134.362L904.94 134.637C886.616 138.261 868.178 127.356 862.725 109.022L861.478 104.829C861.301 104.237 861.638 103.625 862.215 103.453L930.321 83.195C930.898 83.0235 931.515 83.3522 931.691 83.944L932.938 88.1371C938.391 106.471 928.911 125.681 911.584 132.661L910.272 133.189Z" stroke="#F5A837" stroke-opacity="0.1" stroke-width="3.5"/>
</g>
<defs>
<clipPath id="clip0">
<rect width="1440" height="690" fill="white"/>
</clipPath>
</defs>
</svg>
