<svg width="1440" height="423" viewBox="0 0 1440 423" fill="none" xmlns="http://www.w3.org/2000/svg">
<g clip-path="url(#clip0)">
<rect width="1440" height="423" fill="white"/>
<rect width="1440" height="423" fill="#FFF2D0" fill-opacity="0.35"/>
<path d="M-319.338 -154.38C-317.606 -166.32 -306.519 -174.596 -294.575 -172.863L244.785 -94.6317C256.73 -92.8993 265.009 -81.815 263.277 -69.8744L258.477 -36.7838C236.496 114.761 102.644 222.474 -47.3315 214.89C-48.3614 218.741 -50.4949 222.416 -53.8685 225.47L-60.7298 231.682C-70.9879 240.968 -87.1686 238.621 -94.3656 226.803L-99.1794 218.898C-101.546 215.011 -102.548 210.881 -102.441 206.896C-248.388 171.556 -346.118 30.2538 -324.138 -121.289L-319.338 -154.38Z" fill="#F5A837" fill-opacity="0.2"/>
<path d="M824.121 440.243C770.762 497.943 624.945 576.308 468.548 428.159C517.657 368.365 657.524 287.071 824.121 440.243Z" fill="#F5A837" fill-opacity="0.2"/>
<path d="M1534.97 331.625C1541.16 354.149 1611.13 359.152 1590.12 332.623C1572.97 310.958 1561.82 244.557 1558.31 220.94L1602.44 208.817C1723.96 175.433 1786.68 18.0973 1742.54 -142.602C1739.59 -153.315 1730.64 -160.196 1722.54 -157.97L1163.67 -4.43827C1155.57 -2.21264 1151.39 8.27643 1154.33 18.9897C1198.48 179.689 1332.78 282.898 1454.3 249.514L1514.77 232.902C1523.4 245.96 1527.17 276.412 1530.22 301.1C1531.8 313.9 1533.19 325.151 1534.97 331.625Z" fill="#F5A837" fill-opacity="0.2"/>
</g>
<defs>
<clipPath id="clip0">
<rect width="1440" height="423" fill="white"/>
</clipPath>
</defs>
</svg>
