<svg width="148" height="32" viewBox="0 0 148 32" fill="none" xmlns="http://www.w3.org/2000/svg">
<path fill-rule="evenodd" clip-rule="evenodd" d="M11.3182 0.861582C11.3182 0.203547 9.02017 -0.45451 9.47974 0.422885C9.85506 1.13944 9.61734 3.02638 9.51758 3.69412H8.50068C3.80588 3.69412 0 7.5 0 12.1948C0 12.5078 0.253726 12.7615 0.566712 12.7615H20.6259C20.9389 12.7615 21.1926 12.5078 21.1926 12.1948C21.1926 7.5 17.3867 3.69412 12.6919 3.69412H11.0864C10.9173 3.27498 11.0714 2.41966 11.1964 1.72622C11.2612 1.36672 11.3182 1.05072 11.3182 0.861582ZM11.6993 3.20463C11.8562 2.22489 12.7963 0.388492 15.3013 0.880797C15.2 1.85342 14.3378 3.67986 11.6993 3.20463ZM0.672773 14.5456C0.672773 14.1167 1.02047 13.769 1.44938 13.769H19.4068C19.8357 13.769 20.1834 14.1167 20.1834 14.5456V16.4394C20.1834 21.5371 16.2734 25.7215 11.2887 26.1572C11.2841 26.3277 11.2277 26.501 11.1086 26.6554C10.7646 27.1015 10.0915 27.1015 9.74746 26.6554C9.62843 26.501 9.57198 26.3277 9.56736 26.1572C4.58278 25.7215 0.672773 21.537 0.672773 16.4394V14.5456Z" fill="#F5A837"/>
<path d="M28.27 13.29C28.09 13.13 28 12.94 28 12.72C28 12.48 28.09 12.27 28.27 12.09C28.59 11.73 29.39 11.34 30.67 10.92C31.97 10.48 32.89 10.24 33.43 10.2C33.77 10.18 34.05 10.4 34.27 10.86C34.49 11.3 34.66 11.86 34.78 12.54C35.14 11.64 35.7 10.97 36.46 10.53C37.24 10.07 38.12 9.84 39.1 9.84C40.32 9.84 41.4 10.24 42.34 11.04C43.3 11.82 43.94 13.05 44.26 14.73C44.54 16.39 44.91 18.32 45.37 20.52C45.51 20.92 45.82 21.42 46.3 22.02C46.78 22.6 47.02 23.01 47.02 23.25V23.52C47.02 23.62 46.97 23.72 46.87 23.82C46.79 23.9 46.69 23.94 46.57 23.94H38.86C38.54 23.94 38.38 23.81 38.38 23.55C38.34 23.27 38.35 23.05 38.41 22.89C38.43 22.83 38.74 22.47 39.34 21.81C39.94 21.13 40.23 20.57 40.21 20.13C40.21 19.43 39.93 17.54 39.37 14.46C39.23 13.68 39 13.07 38.68 12.63C38.36 12.19 37.89 11.98 37.27 12C36.77 12 36.34 12.17 35.98 12.51C35.64 12.85 35.41 13.28 35.29 13.8C35.17 14.32 35.08 14.78 35.02 15.18C34.98 15.56 34.97 15.91 34.99 16.23H34.96V20.19C34.96 20.69 35.27 21.28 35.89 21.96C36.53 22.64 36.85 23.07 36.85 23.25V23.52C36.85 23.8 36.7 23.94 36.4 23.94H28.57C28.25 23.94 28.09 23.81 28.09 23.55C28.03 23.27 28.05 23.05 28.15 22.89C28.19 22.75 28.38 22.53 28.72 22.23C29.06 21.91 29.36 21.57 29.62 21.21C29.9 20.83 30.03 20.47 30.01 20.13V15.48C30.01 14.94 29.91 14.53 29.71 14.25C29.51 13.97 29.23 13.76 28.87 13.62C28.53 13.46 28.33 13.35 28.27 13.29ZM64.9389 23.04V23.7C64.9389 23.78 64.8889 23.87 64.7889 23.97C64.7089 24.05 64.5989 24.09 64.4589 24.09C63.6189 24.09 62.8689 24.08 62.2089 24.06C61.5489 24.06 61.1289 24.06 60.9489 24.06C60.3489 24.06 59.8189 23.83 59.3589 23.37C58.9189 22.89 58.5889 22.31 58.3689 21.63C57.7689 23.45 56.4189 24.36 54.3189 24.36C53.0189 24.36 51.8589 23.97 50.8389 23.19C49.8189 22.41 49.1689 21.2 48.8889 19.56C48.7889 18.98 48.7389 17.27 48.7389 14.43C48.7189 14.05 48.6189 13.69 48.4389 13.35C48.2789 13.01 48.1189 12.76 47.9589 12.6C47.7989 12.42 47.5989 12.22 47.3589 12C47.1189 11.78 46.9789 11.65 46.9389 11.61C46.7789 11.45 46.6989 11.25 46.6989 11.01C46.6989 10.77 46.7889 10.59 46.9689 10.47C47.6889 10.07 49.1489 9.87 51.3489 9.87C52.3089 9.87 52.9389 10.06 53.2389 10.44C53.5589 10.82 53.7089 11.66 53.6889 12.96V19.53C53.7489 20.21 53.9589 20.81 54.3189 21.33C54.6989 21.83 55.2089 22.07 55.8489 22.05C56.3089 22.03 56.6989 21.87 57.0189 21.57C57.3589 21.27 57.5989 20.88 57.7389 20.4C57.8789 19.92 57.9789 19.47 58.0389 19.05C58.0989 18.61 58.1289 18.16 58.1289 17.7L58.1889 14.64C58.1889 14.3 58.1389 13.99 58.0389 13.71C57.9589 13.41 57.8389 13.15 57.6789 12.93C57.5189 12.71 57.3689 12.53 57.2289 12.39C57.1089 12.23 56.9489 12.07 56.7489 11.91C56.5689 11.75 56.4589 11.65 56.4189 11.61C56.2589 11.45 56.1689 11.25 56.1489 11.01C56.1489 10.77 56.2489 10.59 56.4489 10.47C57.1289 10.07 58.5789 9.87 60.7989 9.87C61.7789 9.87 62.4189 10.06 62.7189 10.44C63.0389 10.8 63.1889 11.64 63.1689 12.96L63.0189 20.22C62.9989 20.58 63.1289 20.95 63.4089 21.33C63.6889 21.69 63.9989 22.04 64.3389 22.38C64.6789 22.7 64.8789 22.92 64.9389 23.04ZM66.1005 11.58C65.8005 11.58 65.6505 11.44 65.6505 11.16V10.71C65.6505 10.43 65.8005 10.29 66.1005 10.29C66.7805 10.29 67.3805 10.13 67.9005 9.81C68.4205 9.47 68.8205 9.06 69.1005 8.58C69.4005 8.1 69.6705 7.62 69.9105 7.14C70.1505 6.64 70.4105 6.22 70.6905 5.88C70.9905 5.54 71.3105 5.36 71.6505 5.34H71.7105C72.2905 5.34 72.5805 5.93 72.5805 7.11C72.5805 7.19 72.5705 7.6 72.5505 8.34C72.5505 9.06 72.5505 9.71 72.5505 10.29H75.0705C75.3305 10.29 75.4605 10.43 75.4605 10.71V11.16C75.4605 11.44 75.3305 11.58 75.0705 11.58H72.4905C72.4905 12.52 72.4805 13.79 72.4605 15.39C72.4405 16.99 72.4305 17.94 72.4305 18.24C72.4305 19.58 72.7805 20.25 73.4805 20.25C73.8005 20.25 74.2805 20.1 74.9205 19.8C74.9605 19.78 75.0205 19.77 75.1005 19.77C75.2605 19.77 75.3905 19.85 75.4905 20.01C75.6105 20.17 75.6405 20.33 75.5805 20.49C75.4005 21.35 74.9205 22.14 74.1405 22.86C73.3805 23.58 72.4505 23.94 71.3505 23.94C70.3505 23.94 69.4405 23.59 68.6205 22.89C67.8205 22.19 67.4205 21.29 67.4205 20.19C67.4205 19.67 67.4105 18.3 67.3905 16.08C67.3705 13.86 67.3605 12.36 67.3605 11.58H66.1005ZM87.4717 15.96C87.8117 16.14 88.0317 16.27 88.1317 16.35C88.2517 16.41 88.5017 16.58 88.8817 16.86C89.2617 17.14 89.5417 17.4 89.7217 17.64C89.9017 17.88 90.0717 18.21 90.2317 18.63C90.4117 19.03 90.4917 19.46 90.4717 19.92C90.4517 20.9 90.0817 21.73 89.3617 22.41C88.6417 23.09 87.7517 23.58 86.6917 23.88C85.6317 24.18 84.4517 24.34 83.1517 24.36C81.1917 24.38 79.5917 24.06 78.3517 23.4C77.1117 22.74 76.4317 22.02 76.3117 21.24C76.2317 20.58 76.3617 20.01 76.7017 19.53C77.0417 19.05 77.5317 18.73 78.1717 18.57C78.4117 18.53 78.5917 18.51 78.7117 18.51C79.3117 18.51 79.8917 18.66 80.4517 18.96C81.0117 19.24 81.3117 19.54 81.3517 19.86C81.3917 20.06 81.2817 20.32 81.0217 20.64C80.7617 20.96 80.6017 21.25 80.5417 21.51C80.3817 22.09 80.5517 22.56 81.0517 22.92C81.5517 23.28 82.2017 23.46 83.0017 23.46C83.8017 23.46 84.4217 23.28 84.8617 22.92C85.3217 22.54 85.5317 22.07 85.4917 21.51C85.4717 21.01 85.1917 20.53 84.6517 20.07C84.1117 19.61 83.5617 19.24 83.0017 18.96C82.9017 18.92 82.7017 18.83 82.4017 18.69C82.1217 18.53 81.7817 18.35 81.3817 18.15C81.0017 17.93 80.7217 17.77 80.5417 17.67C78.0417 16.41 76.8617 14.96 77.0017 13.32C77.1417 12.2 77.8317 11.3 79.0717 10.62C80.3317 9.92 81.8317 9.57 83.5717 9.57H84.1417C85.8817 9.67 87.1817 10 88.0417 10.56C88.9217 11.12 89.3817 11.75 89.4217 12.45C89.4617 12.85 89.3217 13.21 89.0017 13.53C88.7017 13.83 88.2717 13.99 87.7117 14.01C87.6117 14.03 87.4617 14.04 87.2617 14.04C86.7217 14.04 86.2217 13.92 85.7617 13.68C85.3217 13.44 85.0717 13.16 85.0117 12.84C85.0117 12.66 85.1417 12.47 85.4017 12.27C85.6617 12.07 85.8017 11.87 85.8217 11.67C85.8417 11.55 85.8017 11.42 85.7017 11.28C85.6017 11.12 85.3917 10.97 85.0717 10.83C84.7717 10.69 84.3917 10.61 83.9317 10.59C83.3317 10.59 82.7817 10.7 82.2817 10.92C81.7817 11.12 81.5317 11.48 81.5317 12C81.5517 12.24 81.6817 12.49 81.9217 12.75C82.1617 12.99 82.3717 13.16 82.5517 13.26C82.7317 13.36 83.0117 13.51 83.3917 13.71C83.4717 13.75 83.7917 13.93 84.3517 14.25C84.9317 14.55 85.5117 14.86 86.0917 15.18C86.6917 15.5 87.1517 15.76 87.4717 15.96ZM91.833 5.31C91.653 5.19 91.563 5.01 91.563 4.77C91.543 4.51 91.643 4.32 91.863 4.2C92.443 3.84 93.273 3.49 94.353 3.15C95.433 2.81 96.303 2.64 96.963 2.64C97.543 2.64 97.953 2.87 98.193 3.33C98.433 3.77 98.553 4.6 98.553 5.82V12.24C99.193 10.96 100.193 10.2 101.553 9.96C101.893 9.88 102.283 9.84 102.723 9.84C103.943 9.84 105.023 10.24 105.963 11.04C106.923 11.82 107.563 13.05 107.883 14.73C108.463 17.79 108.823 19.72 108.963 20.52C109.103 20.92 109.423 21.42 109.923 22.02C110.423 22.6 110.673 23.01 110.673 23.25V23.52C110.673 23.62 110.623 23.72 110.523 23.82C110.443 23.9 110.343 23.94 110.223 23.94H102.513C102.193 23.94 102.033 23.81 102.033 23.55C101.973 23.27 101.983 23.05 102.063 22.89C102.083 22.83 102.383 22.47 102.963 21.81C103.563 21.13 103.853 20.57 103.833 20.13C103.833 19.51 103.563 17.62 103.023 14.46C102.863 13.68 102.623 13.07 102.303 12.63C102.003 12.19 101.543 11.98 100.923 12C100.403 12 99.963 12.17 99.603 12.51C99.263 12.85 99.023 13.28 98.883 13.8C98.763 14.3 98.683 14.76 98.643 15.18C98.603 15.58 98.593 15.93 98.613 16.23L98.553 16.2V20.19C98.553 20.69 98.873 21.28 99.513 21.96C100.153 22.64 100.473 23.07 100.473 23.25V23.52C100.473 23.62 100.423 23.72 100.323 23.82C100.243 23.9 100.133 23.94 99.993 23.94H92.193C91.873 23.94 91.713 23.81 91.713 23.55C91.653 23.27 91.653 23.05 91.713 22.89C91.733 22.83 92.063 22.47 92.703 21.81C93.363 21.15 93.673 20.59 93.633 20.13V7.5C93.633 6.98 93.523 6.58 93.303 6.3C93.103 6.02 92.823 5.8 92.463 5.64C92.103 5.48 91.893 5.37 91.833 5.31ZM125.745 18.72C125.765 19.08 125.715 19.48 125.595 19.92C125.475 20.36 125.265 20.84 124.965 21.36C124.665 21.88 124.285 22.36 123.825 22.8C123.365 23.24 122.745 23.63 121.965 23.97C121.205 24.29 120.345 24.48 119.385 24.54C119.325 24.54 119.235 24.54 119.115 24.54C118.995 24.56 118.905 24.57 118.845 24.57C118.045 24.57 117.245 24.45 116.445 24.21C115.665 23.97 114.905 23.61 114.165 23.13C113.445 22.65 112.825 21.97 112.305 21.09C111.805 20.21 111.495 19.2 111.375 18.06C111.175 16.02 111.655 14.27 112.815 12.81C113.975 11.35 115.515 10.45 117.435 10.11C117.895 10.01 118.415 9.96 118.995 9.96C120.515 9.96 121.815 10.35 122.895 11.13C123.975 11.91 124.685 12.76 125.025 13.68C125.225 14.26 125.135 14.74 124.755 15.12C124.375 15.48 123.745 15.82 122.865 16.14C122.585 16.22 120.705 16.87 117.225 18.09C117.625 19.13 118.175 19.94 118.875 20.52C119.575 21.1 120.355 21.39 121.215 21.39C122.075 21.39 122.825 21.12 123.465 20.58C124.105 20.04 124.445 19.34 124.485 18.48C124.525 18.12 124.745 17.94 125.145 17.94C125.525 18 125.725 18.26 125.745 18.72ZM118.185 11.25C117.385 11.41 116.875 12.08 116.655 13.26C116.435 14.44 116.515 15.7 116.895 17.04C117.315 16.86 118.345 16.48 119.985 15.9C120.365 15.76 120.655 15.51 120.855 15.15C121.055 14.79 121.115 14.41 121.035 14.01C120.795 13.27 120.445 12.62 119.985 12.06C119.525 11.5 119.025 11.22 118.485 11.22C118.345 11.22 118.245 11.23 118.185 11.25ZM133.938 20.19C133.938 20.69 134.258 21.28 134.898 21.96C135.538 22.64 135.858 23.07 135.858 23.25V23.52C135.858 23.62 135.808 23.72 135.708 23.82C135.628 23.9 135.518 23.94 135.378 23.94H127.578C127.258 23.94 127.098 23.81 127.098 23.55C127.038 23.27 127.038 23.05 127.098 22.89C127.118 22.83 127.448 22.47 128.088 21.81C128.748 21.15 129.058 20.59 129.018 20.13V7.5C129.018 6.98 128.908 6.58 128.688 6.3C128.488 6.02 128.208 5.8 127.848 5.64C127.488 5.48 127.278 5.37 127.218 5.31C127.038 5.19 126.948 5.01 126.948 4.77C126.928 4.51 127.028 4.32 127.248 4.2C127.828 3.84 128.658 3.49 129.738 3.15C130.818 2.81 131.688 2.64 132.348 2.64C132.928 2.64 133.338 2.87 133.578 3.33C133.818 3.77 133.938 4.6 133.938 5.82V20.19ZM144.365 20.19C144.365 20.69 144.685 21.28 145.325 21.96C145.965 22.64 146.285 23.07 146.285 23.25V23.52C146.285 23.62 146.235 23.72 146.135 23.82C146.055 23.9 145.945 23.94 145.805 23.94H138.005C137.685 23.94 137.525 23.81 137.525 23.55C137.465 23.27 137.465 23.05 137.525 22.89C137.545 22.83 137.875 22.47 138.515 21.81C139.175 21.15 139.485 20.59 139.445 20.13V7.5C139.445 6.98 139.335 6.58 139.115 6.3C138.915 6.02 138.635 5.8 138.275 5.64C137.915 5.48 137.705 5.37 137.645 5.31C137.465 5.19 137.375 5.01 137.375 4.77C137.355 4.51 137.455 4.32 137.675 4.2C138.255 3.84 139.085 3.49 140.165 3.15C141.245 2.81 142.115 2.64 142.775 2.64C143.355 2.64 143.765 2.87 144.005 3.33C144.245 3.77 144.365 4.6 144.365 5.82V20.19Z" fill="#302E28"/>
</svg>
